<?xml version="1.0" encoding="UTF-8"?>
<svg id="Layer_1" data-name="Layer 1" xmlns="http://www.w3.org/2000/svg" xmlns:xlink="http://www.w3.org/1999/xlink" viewBox="0 0 755.2 203.63">
  <defs>
    <style>
      .cls-1 {
        fill: url(#linear-gradient);
      }

      .cls-1, .cls-2, .cls-3, .cls-4 {
        stroke-width: 0px;
      }

      .cls-5 {
        clip-path: url(#clippath-2);
      }

      .cls-2 {
        fill: none;
      }

      .cls-6 {
        clip-path: url(#clippath-1);
      }

      .cls-3 {
        fill: #fff;
      }

      .cls-4 {
        fill: url(#linear-gradient-2);
      }

      .cls-7 {
        clip-path: url(#clippath);
      }

      .cls-8 {
        clip-path: url(#clippath-3);
      }
    </style>
    <clipPath id="clippath">
      <rect class="cls-2" x="-189.33" y="-217.08" width="1133.86" height="637.79"/>
    </clipPath>
    <clipPath id="clippath-1">
      <path class="cls-2" d="m466.49,8.56c-4.55,0-8.81,2.26-11.36,6.03l-34,50.31h10.41c4.55,0,8.81-2.26,11.36-6.03l34-50.31h-10.41Z"/>
    </clipPath>
    <linearGradient id="linear-gradient" x1="335.11" y1="-873.09" x2="336.11" y2="-873.09" gradientTransform="translate(-124087.87 -47798.49) rotate(90) scale(142.64)" gradientUnits="userSpaceOnUse">
      <stop offset="0" stop-color="#3777bc"/>
      <stop offset=".13" stop-color="#3777bc"/>
      <stop offset=".19" stop-color="#356eaa"/>
      <stop offset=".29" stop-color="#30577e"/>
      <stop offset=".37" stop-color="#2c455b"/>
      <stop offset="1" stop-color="#2c455b"/>
    </linearGradient>
    <clipPath id="clippath-2">
      <path class="cls-2" d="m110.53,138.73c-4.55,0-8.81,2.26-11.36,6.03l-34,50.31h10.41c4.55,0,8.81-2.26,11.36-6.03l34-50.31h-10.41Z"/>
    </clipPath>
    <linearGradient id="linear-gradient-2" x1="335.11" y1="-873.09" x2="336.11" y2="-873.09" gradientTransform="translate(-124443.84 -47668.34) rotate(90) scale(142.64)" gradientUnits="userSpaceOnUse">
      <stop offset="0" stop-color="#3777bc"/>
      <stop offset=".12" stop-color="#3777bc"/>
      <stop offset=".17" stop-color="#3673b5"/>
      <stop offset=".22" stop-color="#346aa4"/>
      <stop offset=".29" stop-color="#315c88"/>
      <stop offset=".36" stop-color="#2c4760"/>
      <stop offset=".37" stop-color="#2c455b"/>
      <stop offset="1" stop-color="#2c455b"/>
    </linearGradient>
    <clipPath id="clippath-3">
      <rect class="cls-2" x="-189.33" y="-217.08" width="1133.86" height="637.79"/>
    </clipPath>
  </defs>
  <g class="cls-7">
    <g>
      <path class="cls-3" d="m391.98,161.87h-16.84c-3.8,0-7.26,1.75-9.54,4.54v-26.63h-11.45l.05,54.96h11.4v-22.6h26.38l.02,22.6h11.4v-54.96h-11.45l.02,22.09h0Z"/>
      <polygon class="cls-3" points="668 176.74 639.37 139.77 628.08 139.77 628.13 194.74 639.52 194.74 639.52 157.96 667.97 194.74 668.02 194.72 668.02 194.74 679.41 194.74 679.41 139.78 667.97 139.77 668 176.74"/>
      <path class="cls-3" d="m296.89,139.77h-11.51c-12.21,0-22.1,9.9-22.09,22.11v10.78c.02,12.19,9.91,22.08,22.11,22.08h11.49c12.2,0,22.08-9.88,22.09-22.08v-10.78c.02-12.21-9.88-22.11-22.09-22.11m10.31,34.96c0,4.72-3.82,8.54-8.54,8.54h-15.05c-4.72,0-8.54-3.83-8.54-8.54v-14.95c0-4.71,3.82-8.53,8.53-8.53h15.07c4.72,0,8.54,3.82,8.54,8.54v14.94h-.01Z"/>
      <path class="cls-3" d="m561.45,139.78h-25.57l.04,54.96h25.55c14.82,0,26.84-12.01,26.85-26.83v-1.25c.01-14.84-12.02-26.88-26.86-26.88m-.57,43.49h-13.55v-32.02h13.55c8.84,0,16.01,7.17,16.01,16.01s-7.17,16.01-16.01,16.01"/>
      <path class="cls-3" d="m450.32,139.77h-11.51c-12.21,0-22.11,9.9-22.1,22.11v10.77c.02,12.2,9.91,22.08,22.1,22.08h11.49c12.2,0,22.08-9.88,22.09-22.08v-10.77c.02-12.21-9.88-22.11-22.09-22.11m10.31,34.96c0,4.72-3.82,8.54-8.54,8.54h-15.05c-4.72,0-8.54-3.82-8.54-8.54v-14.94c0-4.72,3.82-8.54,8.54-8.54h15.05c4.72,0,8.54,3.82,8.54,8.54v14.94Z"/>
      <polygon class="cls-3" points="601.07 194.74 612.82 194.74 612.82 139.78 601.02 139.77 601.07 194.74"/>
      <polygon class="cls-3" points="497.58 182.38 497.58 139.78 486.13 139.77 486.18 194.67 486.13 194.75 523.07 194.75 523.07 182.38 497.58 182.38"/>
      <path class="cls-3" d="m737,165.49h-10.9l-.2,9.38h10.91l.19-.15c0,4.72-3.83,8.55-8.55,8.55h-15.75c-4.72,0-8.54-3.82-8.54-8.54v-14.94c0-4.72,3.82-8.54,8.54-8.54h16.88c3.71,0,6.77,2.74,7.31,6.3h11.11c-2.01-10.14-10.94-17.78-21.67-17.78h-11.51c-12.21,0-22.1,9.9-22.09,22.11v10.77c.02,12.2,9.91,22.08,22.1,22.08h11.49c12.2,0,22.09-9.88,22.1-22.08v-7.17h-11.42,0Z"/>
      <path class="cls-3" d="m227.66,183.27h-11.51c-4.72,0-8.54-3.82-8.54-8.54v-14.95c0-4.71,3.82-8.53,8.53-8.53h11.53c3.59,0,6.65,2.22,7.91,5.36h11.75c-2.36-9.65-11.05-16.83-21.44-16.83h-7.98c-12.21,0-22.1,9.9-22.09,22.11v10.78c.02,12.2,9.91,22.08,22.11,22.08h7.96c10.38,0,19.07-7.17,21.44-16.83h-11.74c-1.26,3.14-4.33,5.37-7.92,5.37"/>
      <rect class="cls-3" x="307.66" y="29.98" width="11.32" height="66.38"/>
      <path class="cls-3" d="m285.52,85.01h-16.11v-31.67h-22.23c-12.04,0-21.83,9.79-21.83,21.83v9.84h-18.53V29.98h-11.32v66.35h0v.03l81.92-.02c10.72,0,19.41-8.68,19.41-19.39V29.98h-11.32v55.03h.01Zm-27.43,0h-21.41v-9.84c0-5.79,4.71-10.51,10.51-10.51h10.91v20.35h-.01Z"/>
      <path class="cls-3" d="m172.53,53.34v31.67h-24.69v-31.67h-38.48c-5.94,0-11.45,1.92-15.93,5.16v-5.16h-11.32v27.25h0v4.42h-26.61v-31.67h-26.9c-12.04,0-21.83,9.79-21.83,21.83v21.16h30.08v-11.32h-18.76v-9.84c0-5.79,4.71-10.51,10.51-10.51h15.57v31.7l84.25-.02c5.9,0,11.17-2.63,14.73-6.78v6.77l21.29.02c10.72.01,19.41-8.68,19.41-19.39v-23.61h-11.32Zm-36.01,22.74h-.01v8.93h-43.08v-4.42c0-8.79,7.15-15.93,15.93-15.93h27.16v11.42h0Z"/>
      <path class="cls-3" d="m505.8,76.96v8.04h-105.26v-31.67h-19.08c-15.08,0-27.3,12.23-27.3,27.3v15.69h27.64v-11.32h-16.32v-4.37c0-8.83,7.16-15.98,15.98-15.98h7.76v31.67h-.08v1.29c0,5.15-4.18,9.33-9.33,9.33h-6.68l-9.15,11.32h15.83c11.4,0,20.65-9.24,20.65-20.65v-1.26h.09v-.03l97.17.02c6,0,11.36-2.72,14.93-6.99v6.98h61.32l17.59.02c6.2,0,11.7-2.91,15.26-7.43v7.41l27.79.02c6.2,0,11.7-2.91,15.26-7.43v7.41h61.56l17.59.02c10.72,0,19.41-8.68,19.41-19.39v-22.49c0-.62-.5-1.12-1.12-1.12h-9.07c-.62,0-1.12.5-1.12,1.12v30.55h-12.48v-24.89c0-.62-.5-1.12-1.12-1.12h-9.07c-.62,0-1.12.5-1.12,1.12v24.89h-12.48v-24.89c0-.62-.5-1.12-1.12-1.12h-9.08c-.62,0-1.12.5-1.12,1.12v24.89h-37.26c1.12-2.46,1.77-5.18,1.77-8.06v-22.49c0-.62-.5-1.12-1.12-1.12h-9.07c-.62,0-1.12.5-1.12,1.12v30.55h-33.49c1.12-2.46,1.77-5.18,1.77-8.06v-22.49c0-.62-.5-1.12-1.12-1.12h-9.07c-.62,0-1.12.5-1.12,1.12v30.55h-12.48v-24.89c0-.62-.5-1.12-1.12-1.12h-9.08c-.62,0-1.12.5-1.12,1.12v24.89h-12.48v-24.89c0-.62-.5-1.12-1.12-1.12h-9.08c-.62,0-1.12.5-1.12,1.12v24.89h-36.68c1.12-2.45,1.77-5.17,1.77-8.04h0v1.04h-.04"/>
      <path class="cls-3" d="m152.13,195.08c-8.67,0-19.32-2.45-23.46-4.65l-.77-.41,4.55-8.21.64.16c5.9,1.46,11.9,2.2,17.82,2.2,1.04,0,2.06-.02,3.05-.07,2.77-.12,5.96-.43,8.68-1.78,1.72-.86,3.52-2.48,3.41-4.46-.25-4.72-8.32-5.08-10.78-5.08l-4.78.07h-1.89c-6.24,0-12.75-.39-17.82-5.08-2.69-2.49-4.47-6-4.88-9.65-.44-3.95.51-7.42,2.83-10.28,5.01-6.2,15.01-7.83,19.08-8.24,1.18-.12,2.44-.18,3.74-.18,9.22,0,18.93,2.88,23.4,5.59l.71.43-4.65,8.41-.73-.35c-4.24-2.01-10.72-3.17-17.78-3.17-.88,0-1.75.02-2.6.06-2.77.12-5.96.43-8.67,1.78-1.72.86-3.52,2.48-3.42,4.47.25,4.72,8.32,5.08,10.79,5.08l1.33-.02c1.48-.03,2.96-.06,4.43-.06,2.49,0,4.54.08,6.43.27,5.31.51,9.33,2.09,12.28,4.81,2.69,2.49,4.47,6.01,4.88,9.65.44,3.95-.51,7.41-2.83,10.28-5.01,6.2-15.01,7.83-19.08,8.24-1.21.12-2.52.18-3.91.18"/>
      <path class="cls-3" d="m33.11,195.08c-8.67,0-19.32-2.45-23.46-4.65l-.78-.41,4.55-8.21.64.16c5.9,1.46,11.9,2.2,17.82,2.2,1.04,0,2.06-.02,3.05-.07,2.77-.12,5.96-.43,8.68-1.78,1.72-.86,3.52-2.48,3.41-4.46-.25-4.72-8.32-5.08-10.78-5.08l-4.78.07h-1.89c-6.24,0-12.75-.39-17.82-5.08-2.69-2.49-4.47-6-4.88-9.65-.44-3.95.51-7.42,2.83-10.28,5.01-6.2,15.01-7.83,19.08-8.24,1.18-.12,2.44-.18,3.74-.18,9.22,0,18.93,2.88,23.4,5.59l.71.43-4.65,8.41-.73-.35c-4.24-2.01-10.72-3.17-17.78-3.17-.88,0-1.75.02-2.6.06-2.77.12-5.96.43-8.68,1.78-1.72.86-3.52,2.48-3.41,4.47.25,4.72,8.32,5.08,10.79,5.08l1.33-.02c1.48-.03,2.96-.06,4.43-.06,2.49,0,4.54.08,6.43.27,5.31.51,9.33,2.09,12.28,4.81,2.69,2.49,4.47,6.01,4.88,9.65.44,3.95-.51,7.41-2.83,10.28-5.01,6.2-15.01,7.83-19.08,8.24-1.21.12-2.52.18-3.91.18"/>
      <rect class="cls-3" x="400.54" y="85.06" width="91.62" height="11.26"/>
    </g>
  </g>
  <g class="cls-6">
    <rect class="cls-1" x="418.82" y="6.31" width="60.36" height="60.89" transform="translate(-1.5 38.41) rotate(-4.89)"/>
  </g>
  <g class="cls-5">
    <rect class="cls-4" x="62.86" y="136.47" width="60.36" height="60.89" transform="translate(-13.89 8.54) rotate(-4.89)"/>
  </g>
  <g class="cls-8">
    <g>
      <path class="cls-3" d="m493.16,53.63h-36.62c-2.78,0-5.39,1.38-6.94,3.69l-5.12,7.58h48.24c7.26,0,13.14,5.88,13.14,13.14v7.02h-13.94v11.26l5.9.02c10.57.01,19.15-8.49,19.3-19.02-.15-13.11-10.8-23.69-23.95-23.69"/>
      <rect class="cls-3" x="235.68" y="30.83" width="12.21" height="12.21" transform="translate(44.7 181.78) rotate(-45)"/>
      <rect class="cls-3" x="114.83" y="30.87" width="12.21" height="12.21" transform="translate(9.28 96.34) rotate(-45)"/>
      <rect class="cls-3" x="154.96" y="104.98" width="12.2" height="12.2" transform="translate(-31.37 146.42) rotate(-45)"/>
      <rect class="cls-3" x="613.61" y="104.93" width="12.21" height="12.21" transform="translate(103 470.72) rotate(-45)"/>
      <rect class="cls-3" x="633.01" y="104.93" width="12.21" height="12.21" transform="translate(108.68 484.44) rotate(-45)"/>
      <rect class="cls-3" x="254.67" y="30.86" width="12.21" height="12.21" transform="translate(50.24 195.22) rotate(-45)"/>
      <rect class="cls-3" x="18.1" y="30.85" width="12.21" height="12.21" transform="translate(-19.04 27.94) rotate(-45)"/>
      <rect class="cls-3" x="37.08" y="30.86" width="12.21" height="12.21" transform="translate(-13.49 41.37) rotate(-45)"/>
    </g>
  </g>
</svg>