<svg width="240" height="86" viewBox="0 0 240 86" fill="none" xmlns="http://www.w3.org/2000/svg">
<g clip-path="url(#clip0_1_40)">
<mask id="mask0_1_40" style="mask-type:luminance" maskUnits="userSpaceOnUse" x="0" y="20" width="240" height="45">
<path d="M240 20.6122H0V64.6939H240V20.6122Z" fill="white"/>
</mask>
<g mask="url(#mask0_1_40)">
<mask id="mask1_1_40" style="mask-type:luminance" maskUnits="userSpaceOnUse" x="0" y="20" width="240" height="45">
<path d="M240 20.6122H0V64.6939H240V20.6122Z" fill="white"/>
</mask>
<g mask="url(#mask1_1_40)">
<path d="M94.1422 48.4481H96.0833V45.0518H98.1631C98.6483 45.0518 99.0642 45.472 99.0642 45.9621V48.4481C99.0642 48.4481 101.456 48.4481 101.768 48.4481C101.768 49.1133 101.768 50.6889 101.768 50.6889H99.0642V56.4311C99.0642 58.1468 99.4108 58.6019 100.693 58.6019C100.971 58.6019 101.144 58.5669 101.525 58.4618V60.7028C100.901 60.8427 100.381 60.8778 99.7575 60.8778C98.267 60.8778 97.2271 60.4927 96.6378 59.7223C96.1526 59.1271 96.0486 58.6019 96.0486 56.7462V50.6889H94.1076V48.4481H94.1422Z" fill="white"/>
<path d="M19.1333 41.6905H21.2129C21.7675 41.6905 22.1488 42.1456 22.1488 42.6008V48.6231C23.154 48.273 23.9166 48.1329 24.8525 48.1329C28.3187 48.1329 30.5024 50.4788 30.5024 54.2252C30.5024 58.4967 27.7641 60.8776 22.7728 60.8776C21.6289 60.8776 20.7277 60.7727 19.1679 60.4925V41.6905H19.1333ZM22.1142 58.3568C22.5994 58.3918 22.8768 58.4268 23.2581 58.4268C25.9963 58.4268 27.4174 57.0613 27.4174 54.3652C27.4174 51.9493 26.1697 50.5488 23.9513 50.5488C23.3274 50.5488 22.8421 50.6189 22.0795 50.8989V58.3568H22.1142Z" fill="white"/>
<path d="M40.589 41.6905H42.634C43.1887 41.6905 43.5699 42.1106 43.5699 42.6008V60.3524C41.7328 60.7377 40.3117 60.8776 38.8905 60.8776C34.4538 60.8776 32.0968 58.7419 32.0968 54.6804C32.0968 50.6889 34.6271 48.1329 38.6133 48.1329C39.3758 48.1329 39.8958 48.2029 40.5544 48.3779V41.6905H40.589ZM40.589 50.8289C40.0345 50.6539 39.5492 50.5838 38.9252 50.5838C36.5682 50.5838 35.147 52.0543 35.147 54.5753C35.147 57.0613 36.4296 58.4618 38.8212 58.4618C39.4799 58.4618 39.9651 58.3918 40.589 58.1817V50.8289Z" fill="white"/>
<path d="M48.8736 48.4478V55.7306C48.8736 57.6213 49.4976 58.2866 51.404 58.2866C52.0971 58.2866 52.6517 58.2166 53.3797 58.1115V48.4478H56.3606V60.2823C54.1422 60.7025 52.7557 60.8775 51.1266 60.8775C49.1856 60.8775 47.8684 60.4924 47.0018 59.7221C46.1352 58.9169 45.858 57.9014 45.858 55.8357V48.4478H48.8736Z" fill="white"/>
<path d="M58.7175 41.6905H60.7626C61.3172 41.6905 61.6985 42.1106 61.6985 42.6008V60.7027H58.7175V41.6905Z" fill="white"/>
<path d="M188.145 41.6905H190.19C190.745 41.6905 191.127 42.1106 191.127 42.6008V60.7027H188.145V41.6905Z" fill="white"/>
<path d="M69.1855 41.6905H71.4384C71.9931 41.6905 72.3397 42.1106 72.3397 42.6008V57.8316H79.7227V60.7027H69.1855V41.6905Z" fill="white"/>
<path d="M103.536 44.0713H106.551V46.3121H103.536V44.0713ZM103.57 48.448C104.714 48.448 106.17 48.448 106.551 48.448V60.7375H103.57V48.448Z" fill="white"/>
<path d="M126.17 41.6905C126.691 41.6905 127.071 42.1106 127.071 42.6008V55.1705C127.071 57.9015 126.759 62.5934 122.149 64.6941C121.664 63.8189 120.971 62.6284 120.589 61.9281C121.803 61.2629 122.6 60.5626 123.086 59.6523C123.709 58.4618 123.883 57.0613 123.883 53.4199V41.6905H126.17Z" fill="white"/>
<path d="M142.739 48.4478C144.956 48.4478 148.735 47.6076 151.404 48.728C151.924 48.5529 153.658 48.1328 155.529 48.1328C159.931 48.1328 160.451 50.4436 160.451 52.7195V60.7375H157.469V52.8946C157.469 50.7238 155.771 50.0935 153.171 50.6888C153.171 51.354 153.137 60.7025 153.137 60.7025H150.157V52.9296C150.157 51.214 149.151 49.9885 145.685 50.7238V60.7025H142.704V48.4478H142.739Z" fill="white"/>
<path d="M11.1958 43.5809C10.9879 43.0557 10.6759 42.6004 9.7747 42.6004H7.27903C4.36741 49.358 2.39169 54.1548 0 60.7023H3.36222C4.88734 56.2906 7.0364 50.6535 8.9428 45.7516C9.70537 47.8874 10.7452 51.0736 11.1265 52.4042H8.31889L7.41768 54.9602H11.9931C12.4783 56.3956 13.3449 59.0917 13.8648 60.7023H17.435C15.1127 53.9797 12.721 47.3622 11.1958 43.5809Z" fill="white"/>
<path d="M165.096 55.2051C165.58 59.6868 171.196 58.7065 172.894 57.1308V59.6518C171.404 60.5271 170.156 60.8773 168.458 60.8773C164.541 60.8773 162.253 58.5314 162.253 54.6098C162.253 50.7234 164.611 48.1674 168.18 48.1674C173.587 48.1674 173.519 53.4544 173.553 55.2401H165.096M170.607 53.1393C170.469 51.4237 169.636 50.4783 168.007 50.4783C166.273 50.4783 165.304 51.5987 165.096 53.1393H170.607Z" fill="white"/>
<path d="M177.921 55.2051C178.406 59.6868 183.986 58.7065 185.72 57.1308V59.6518C184.229 60.5271 182.982 60.8773 181.282 60.8773C177.366 60.8773 175.078 58.5314 175.078 54.6098C175.078 50.7234 177.435 48.1674 181.005 48.1674C186.413 48.1674 186.378 53.4544 186.378 55.2401H177.921M183.432 53.1393C183.293 51.4237 182.461 50.4783 180.831 50.4783C179.099 50.4783 178.129 51.5987 177.921 53.1393H183.432Z" fill="white"/>
<path d="M92.2703 48.4478V60.3523C89.6361 60.9126 80.8319 62.5933 80.8319 54.5051C80.8319 50.5137 83.3622 48.1328 87.3484 48.1328C89.4627 48.1328 90.7452 48.4478 92.2703 48.4478ZM89.2894 50.7238C88.5961 50.5837 83.8821 49.6034 83.8821 54.5051C83.8821 59.337 88.7002 58.4267 89.2894 58.1815V50.7238Z" fill="white"/>
<path d="M140.45 48.4478V60.3523C137.816 60.9126 129.012 62.6283 129.012 54.5051C129.012 50.5137 131.542 48.1328 135.529 48.1328C137.642 48.1328 138.926 48.4478 140.45 48.4478ZM137.47 50.7238C136.811 50.5837 132.062 49.6034 132.062 54.5051C132.062 59.337 136.881 58.4267 137.47 58.1815V50.7238Z" fill="white"/>
<path d="M108.354 48.4478H110.295C110.295 45.5768 110.745 44.0711 111.958 42.9507C112.894 42.0753 114.246 41.5852 115.737 41.5852C116.187 41.5852 116.465 41.6202 116.984 41.7253V44.1412C116.568 44.0711 116.361 44.0361 116.049 44.0361C115.113 44.0361 114.35 44.3863 113.899 44.9816C113.414 45.5768 113.276 46.452 113.276 48.4478H116.291V50.6887H113.276V60.7374H110.295V50.6887H108.354V48.4478Z" fill="white"/>
<path d="M213.137 55.8358C213.276 55.9409 213.38 56.1509 213.31 56.396C213.241 56.641 213.033 56.7111 212.859 56.7111H209.947C209.601 56.7111 209.358 56.676 209.186 56.5361C209.012 56.396 208.873 56.1859 208.769 55.8008C208.769 55.8008 207.938 53.2448 207.902 53.0697C207.834 52.8597 207.902 52.6495 208.042 52.5445C208.215 52.4044 208.457 52.4044 208.596 52.5095C208.769 52.6145 213.137 55.8358 213.137 55.8358Z" fill="white"/>
<path d="M210.85 46.2069C210.71 46.2418 210.676 46.3469 210.676 46.4519C210.676 46.557 210.746 46.627 210.78 46.662C210.849 46.6971 212.2 47.7124 212.34 47.8175C212.478 47.9225 212.651 47.9225 212.755 47.8875C212.859 47.8525 216.187 46.7671 216.187 46.7671V53.1045C216.187 53.1045 209.532 48.2376 209.047 47.8525C208.561 47.5023 207.938 47.1872 207.001 47.5023C206.031 47.8175 203.466 48.6577 203.05 48.7978C202.635 48.9379 202.461 49.323 202.599 49.7082C202.703 50.0233 205.234 57.9363 205.477 58.6016C205.962 60.1421 206.794 60.7373 208.353 60.7373C208.735 60.7373 218.058 60.7373 218.058 60.7373C218.198 60.7373 218.302 60.6322 218.336 60.4923V58.7765C218.336 58.6366 218.198 58.4965 218.058 58.4965H209.012C207.834 58.4965 207.626 58.1813 207.383 57.4111C207.209 56.8509 205.13 50.4434 205.13 50.4084C205.13 50.3735 205.13 50.3385 205.164 50.3385C205.199 50.3385 206.378 49.9182 207.037 49.7432C207.66 49.5331 208.042 49.8131 208.423 50.0933C208.804 50.3735 217.123 56.5007 217.469 56.7108C217.782 56.9558 218.336 56.7809 218.336 56.2207C218.336 55.6604 218.336 43.7209 218.336 43.7209C218.336 43.7209 210.988 46.1719 210.85 46.2069Z" fill="white"/>
<path d="M216.43 28.1051C216.291 28.1051 216.049 28.0001 215.979 27.7549C215.909 27.5099 216.049 27.3348 216.152 27.2298L218.509 25.4791C218.787 25.2691 219.029 25.164 219.238 25.164C219.48 25.164 219.688 25.2691 220 25.5141C220 25.5141 222.149 27.0898 222.322 27.1947C222.496 27.3348 222.565 27.5449 222.496 27.72C222.426 27.93 222.253 28.0701 222.045 28.0701C221.837 28.1051 216.43 28.1051 216.43 28.1051Z" fill="white"/>
<path d="M223.848 34.5123C223.916 34.4072 223.916 34.3022 223.848 34.1971C223.778 34.1272 223.709 34.0922 223.64 34.0922C223.57 34.0922 221.871 34.0922 221.699 34.0922C221.525 34.0922 221.387 34.1971 221.352 34.2671C221.282 34.3722 219.238 37.2082 219.238 37.2082L215.563 32.0964C215.563 32.0964 223.778 32.0964 224.402 32.0964C225.026 32.0964 225.684 31.9913 226.239 31.1861C226.862 30.3457 228.422 28.1749 228.665 27.8247C228.909 27.4747 228.839 27.0544 228.492 26.8094C228.214 26.5993 221.559 21.7324 221.006 21.3123C219.722 20.367 218.717 20.367 217.435 21.3123C217.123 21.5574 209.567 27.0894 209.567 27.0894C209.462 27.1595 209.428 27.3346 209.498 27.4396L210.468 28.8052C210.572 28.9101 210.71 28.9451 210.849 28.8751L218.162 23.5181C219.099 22.8529 219.446 22.9229 220.139 23.4131C220.589 23.7632 225.997 27.7197 226.031 27.7197C226.065 27.7197 226.065 27.7547 226.031 27.7897C225.997 27.8247 225.268 28.8401 224.887 29.4004C224.507 29.9606 224.02 29.9256 223.536 29.9256C223.051 29.9256 212.755 29.9256 212.374 29.9256C211.993 29.9256 211.611 30.4158 211.924 30.8359C212.236 31.291 219.203 40.9547 219.203 40.9547C219.203 40.9547 223.778 34.6524 223.848 34.5123Z" fill="white"/>
<path d="M204.818 40.7803C204.784 40.9203 204.61 41.0954 204.367 41.1304C204.125 41.1304 203.987 40.9553 203.917 40.8153L203.016 38.0142C202.911 37.6641 202.877 37.419 202.946 37.209C203.016 36.9989 203.189 36.7887 203.5 36.5787C203.5 36.5787 205.649 35.0031 205.823 34.898C205.996 34.758 206.204 34.7931 206.378 34.898C206.551 35.0031 206.62 35.2482 206.586 35.4233C206.482 35.5633 204.818 40.7803 204.818 40.7803Z" fill="white"/>
<path d="M213.137 35.5983C213.067 35.4932 212.963 35.4582 212.859 35.4932C212.755 35.5282 212.721 35.5983 212.687 35.6683C212.652 35.7382 212.132 37.3489 212.098 37.5239C212.028 37.699 212.098 37.8391 212.166 37.9442C212.236 38.0492 214.281 40.8853 214.281 40.8853L208.319 42.846C208.319 42.846 210.85 34.968 211.057 34.3728C211.231 33.7776 211.335 33.1123 210.78 32.307C210.191 31.4667 208.597 29.2608 208.353 28.9107C208.111 28.5605 207.696 28.4906 207.349 28.7356C207.071 28.9458 200.45 33.8126 199.861 34.2327C198.579 35.178 198.267 36.1585 198.752 37.664C198.891 38.0492 201.768 47.0126 201.768 47.0126C201.802 47.1526 201.942 47.2226 202.08 47.1876L203.674 46.6624C203.813 46.6274 203.882 46.4523 203.847 46.3123L201.04 37.629C200.694 36.5086 200.901 36.2285 201.56 35.7033C202.01 35.3882 207.418 31.3967 207.452 31.3967C207.452 31.3967 207.522 31.3617 207.522 31.3967C207.556 31.4317 208.284 32.4471 208.665 33.0073C209.047 33.5675 208.908 33.9876 208.769 34.4429C208.631 34.898 205.442 44.8067 205.338 45.1569C205.234 45.542 205.547 46.0322 206.066 45.8571C206.586 45.6821 217.851 41.9706 217.851 41.9706C217.851 41.9706 213.241 35.7033 213.137 35.5983Z" fill="white"/>
<path d="M229.914 52.4745C230.052 52.3694 230.26 52.3344 230.469 52.4745C230.676 52.6144 230.676 52.8595 230.641 52.9996L229.74 55.8007C229.636 56.1507 229.498 56.3609 229.324 56.4659C229.151 56.606 228.909 56.641 228.492 56.641C228.492 56.641 225.823 56.641 225.65 56.641C225.442 56.641 225.268 56.5009 225.2 56.3258C225.13 56.1157 225.2 55.9057 225.372 55.7656C225.512 55.6956 229.914 52.4745 229.914 52.4745Z" fill="white"/>
<path d="M220.139 51.7041C220.139 51.8442 220.207 51.9142 220.311 51.9493C220.416 51.9843 220.485 51.9493 220.554 51.9142C220.624 51.8792 221.976 50.8639 222.114 50.7588C222.253 50.6538 222.288 50.5137 222.288 50.3737C222.288 50.2686 222.288 46.7323 222.288 46.7323L228.25 48.693C228.25 48.693 221.595 53.5598 221.109 53.9451C220.624 54.3302 220.139 54.7853 220.139 55.7657C220.139 56.8161 220.139 59.5121 220.139 59.9323C220.139 60.3524 220.451 60.6675 220.866 60.6675C221.213 60.6675 229.428 60.6675 230.121 60.6675C231.715 60.6675 232.548 60.0723 233.033 58.5668C233.137 58.1817 236.014 49.2183 236.014 49.2183C236.049 49.0782 235.979 48.9381 235.875 48.8681L234.28 48.3429C234.142 48.3079 234.004 48.3779 233.934 48.518L231.162 57.2012C230.78 58.3216 230.467 58.4267 229.636 58.4267C229.081 58.4267 222.392 58.4267 222.356 58.4267C222.322 58.4267 222.288 58.4267 222.288 58.3917C222.288 58.3566 222.288 57.0962 222.288 56.431C222.288 55.7657 222.669 55.4856 223.051 55.2055C223.431 54.9254 231.751 48.798 232.097 48.588C232.409 48.3429 232.409 47.7477 231.923 47.6076C231.404 47.4326 220.139 43.7562 220.139 43.7562C220.139 43.7562 220.139 51.5642 220.139 51.7041Z" fill="white"/>
<path d="M231.924 35.3529C231.889 35.2128 231.889 34.9678 232.097 34.7927C232.305 34.6526 232.513 34.7227 232.652 34.7927L235.009 36.5083C235.286 36.7184 235.46 36.8934 235.529 37.1035C235.598 37.3137 235.564 37.5587 235.46 37.9439C235.46 37.9439 234.628 40.4998 234.558 40.6749C234.489 40.885 234.316 40.99 234.142 41.025C233.934 41.025 233.727 40.92 233.657 40.7099C233.587 40.5698 231.924 35.3529 231.924 35.3529Z" fill="white"/>
<path d="M228.18 44.4911C228.32 44.5262 228.422 44.4911 228.458 44.4212C228.527 44.3162 228.527 44.2461 228.492 44.1761C228.458 44.106 227.938 42.4955 227.903 42.3204C227.833 42.1453 227.729 42.0752 227.625 42.0403C227.521 42.0053 224.194 40.9198 224.194 40.9198L227.869 35.8079C227.869 35.8079 230.399 43.6859 230.607 44.2811C230.815 44.8764 231.126 45.4716 232.027 45.7867C232.998 46.1018 235.564 46.9421 235.944 47.0822C236.361 47.2222 236.742 47.0121 236.846 46.627C236.95 46.3118 239.48 38.3989 239.723 37.7337C240.208 36.228 239.896 35.2127 238.614 34.3023C238.302 34.0573 230.745 28.5251 230.745 28.5251C230.641 28.4551 230.469 28.4551 230.399 28.5602L229.428 29.9257C229.324 30.0308 229.359 30.2058 229.498 30.3108L236.811 35.6678C237.747 36.3681 237.747 36.7182 237.504 37.5235C237.331 38.0487 235.251 44.4911 235.251 44.5262C235.251 44.5612 235.217 44.5612 235.182 44.5612C235.147 44.5612 233.969 44.1761 233.311 43.966C232.686 43.756 232.548 43.3007 232.409 42.8455C232.271 42.3904 229.081 32.4817 228.943 32.1315C228.804 31.7464 228.25 31.5713 227.938 31.9914C227.625 32.4467 220.659 42.1102 220.659 42.1102C220.659 42.1102 228.042 44.4561 228.18 44.4911Z" fill="white"/>
<path d="M236.291 25.7242H235.667V22.0478C235.875 22.0128 236.291 21.9778 236.568 21.9778C237.539 21.9778 238.059 22.398 238.059 23.1682C238.059 23.6935 237.747 24.1137 237.331 24.2537L238.44 25.6892H237.677L236.707 24.3937H236.291V25.7242ZM236.291 23.9035H236.603C237.088 23.9035 237.435 23.6935 237.435 23.2033C237.435 22.7831 237.158 22.538 236.603 22.538C236.533 22.538 236.395 22.538 236.325 22.538V23.9035H236.291Z" fill="white"/>
<path d="M236.707 27.2648C234.905 27.2648 233.415 25.7942 233.415 23.9384C233.415 22.0827 234.869 20.6122 236.707 20.6122C238.544 20.6122 240 22.0827 240 23.9384C240 25.7942 238.51 27.2648 236.707 27.2648ZM236.707 21.1724C235.182 21.1724 233.968 22.3979 233.968 23.9384C233.968 25.4791 235.182 26.7046 236.707 26.7046C238.232 26.7046 239.445 25.4791 239.445 23.9384C239.445 22.3979 238.232 21.1724 236.707 21.1724Z" fill="white"/>
</g>
</g>
</g>
<defs>
<clipPath id="clip0_1_40">
<rect width="240" height="45" fill="white" transform="translate(0 20)"/>
</clipPath>
</defs>
</svg>
