<svg width="131" height="86" viewBox="0 0 131 86" fill="none" xmlns="http://www.w3.org/2000/svg">
<mask id="mask0_1_62" style="mask-type:luminance" maskUnits="userSpaceOnUse" x="0" y="18" width="131" height="49">
<path d="M131 18H0V67H131V18Z" fill="white"/>
</mask>
<g mask="url(#mask0_1_62)">
<mask id="mask1_1_62" style="mask-type:luminance" maskUnits="userSpaceOnUse" x="0" y="18" width="131" height="49">
<path d="M131 18H0V67H131V18Z" fill="white"/>
</mask>
<g mask="url(#mask1_1_62)">
<path d="M20.5908 66.6938H24.6269L26.9527 57.0299H26.9869L30.0994 66.6938H33.1778L40.942 57.0299H40.9762L38.6504 66.6938H42.6864L45.9357 53.2188H39.5738L32.8015 61.8958L30.202 53.2188H23.8402L20.5908 66.6938Z" fill="white"/>
<path d="M44.9434 66.6938H49.082L52.3314 53.2188H48.1927L44.9434 66.6938Z" fill="white"/>
<path fill-rule="evenodd" clip-rule="evenodd" d="M61.2929 56.3495L62.7637 61.4196H57.4621L61.2929 56.3495ZM48.8086 66.6939H53.4261L55.2047 64.312H63.6188L64.3371 66.6939H68.9545L64.7817 53.2529H59.3775L48.8086 66.6939Z" fill="white"/>
<path d="M68.7153 66.6938H72.854L75.214 56.9278H75.2482L80.6866 66.6938H87.1169L90.3663 53.2188H86.1934L83.8334 63.0188H83.7991L78.395 53.2188H71.9647L68.7153 66.6938Z" fill="white"/>
<path d="M91.2212 56.5875H97.07L94.6074 66.6938H98.746L101.209 56.5875H107.023L107.844 53.2188H92.0421L91.2212 56.5875Z" fill="white"/>
<path d="M105.963 66.6938H110.102L113.351 53.2188H109.212L105.963 66.6938Z" fill="white"/>
<path d="M114.274 56.5875H120.089L117.661 66.6938H121.799L124.228 56.5875H130.076L130.863 53.2188H115.061L114.274 56.5875Z" fill="white"/>
<path d="M13.7155 56.2134L9.4742 61.3516H14.8442L14.1259 58.0169H18.6408L20.7272 66.694H16.0413L15.494 64.278H6.97733L4.99352 66.694H0.307617L11.9711 53.0488H17.4436L18.2303 56.2134H13.7155Z" fill="white"/>
<path d="M47.1667 31.6111L48.8085 29.025L45.9354 27.4257L44.2594 29.9438L47.1667 31.6111ZM87.1166 27.5278L84.2435 25.8944L82.6017 28.4125L85.509 30.1139L87.1166 27.5278ZM78.4973 30.5903L75.6584 28.9229L73.9482 31.3729L76.8555 33.0743L78.4973 30.5903ZM44.4646 29.025L41.5915 27.4257L39.984 29.9438L42.8913 31.6111L44.4646 29.025ZM65.4657 47.1278L63.7555 49.5778L66.6628 51.2451L68.2704 48.7611L65.4657 47.1278ZM81.1652 33.0743L82.7727 30.5563L79.8654 28.8889L78.2578 31.3389L81.1652 33.0743ZM123.065 37.2597C122.928 36.9535 122.757 36.6472 122.62 36.341C121.731 34.7076 120.978 33.6188 120.328 33.0403C120.157 32.9042 119.986 32.8021 119.815 32.7681C119.644 32.7 119.507 32.7 119.371 32.7H119.097C118.276 32.7 117.558 32.9382 116.908 33.4486C116.703 33.6188 116.463 33.891 116.19 34.1632C115.916 34.4694 115.642 34.8097 115.335 35.184L113.522 37.4979C112.735 38.4847 112.085 39.1993 111.641 39.6076C110.922 40.2882 110.17 40.6285 109.417 40.6285H108.186C107.16 40.6285 106.305 40.3563 105.655 39.8118C105.313 39.5056 105.005 39.0632 104.697 38.4847C104.697 38.0764 104.766 37.566 104.937 36.9194L105.176 36.2049L104.902 35.9667L104.184 37.6L103.705 38.6889C103.5 39.1653 102.953 39.6076 102.064 40.016C101.585 40.2201 101.174 40.3903 100.764 40.4924C100.353 40.5944 99.943 40.6285 99.5325 40.6285H98.3354C98.0276 40.6285 97.6513 40.5264 97.2067 40.3563L96.5568 40.084L96.0096 39.7778C95.5307 39.4375 95.1203 39.0972 94.7782 38.6549C94.3336 38.0764 94.1283 37.5319 94.1283 37.0556C93.8889 35.0819 93.7863 33.3465 93.7863 31.8493L93.3759 28.2424L93.2391 27.2896L93.068 26.3028C92.8628 25.5882 92.7602 25.2139 92.726 25.1799L91.6657 27.2556L91.8025 27.6299C91.8367 27.6639 91.8709 27.8681 91.9051 28.2083L92.1787 29.4333L92.7602 32.0875C92.8628 32.666 92.9312 33.1424 92.9654 33.4826C92.9996 33.8229 93.0338 34.1632 93.0338 34.5035C93.068 34.7076 93.1022 34.9458 93.1022 35.184C93.1022 35.4222 93.1022 35.6264 93.1022 35.8646V37.6681C93.1022 38.7229 93.1706 39.5396 93.3074 40.1521C93.4101 40.5264 93.5127 40.7986 93.6495 41.0708C93.8205 41.3431 94.0257 41.6153 94.231 41.9215C94.7782 42.5 95.4623 42.9424 96.3174 43.2486C97.0357 43.5208 97.7197 43.6569 98.3012 43.6569H99.5325C100.319 43.6569 101.174 43.3507 102.098 42.7042C102.782 42.1938 103.295 41.6493 103.637 41.1049C104.013 41.8194 104.389 42.3639 104.868 42.7042C105.655 43.3167 106.647 43.6569 107.776 43.6569H109.999C110.478 43.6569 110.957 43.3847 111.47 42.8063C111.983 42.2618 112.427 41.6153 112.804 40.9347L114.445 41.4111L117.866 42.6701C119.371 43.2146 120.602 43.5889 121.525 43.7931H121.765C121.97 43.7931 122.141 43.725 122.244 43.5889L123.338 41.5813C123.543 41.1389 123.715 40.7646 123.817 40.4583C123.92 40.1181 123.954 39.8458 123.954 39.6417C123.851 39.2674 123.715 38.791 123.475 38.2125C123.338 37.8722 123.201 37.566 123.065 37.2597ZM121.115 39.5736L121.047 39.8118L120.841 40.1521L119.439 39.7097L117.524 38.9951L114.958 37.8042L115.506 37.2938L116.292 36.6813C116.908 36.2049 117.284 36.0007 117.421 36.0007C118.345 36.1708 119.2 36.7153 120.021 37.634C120.636 38.3486 121.012 38.9271 121.149 39.3694C121.115 39.4035 121.115 39.4715 121.115 39.5736ZM68.0652 49.5438L70.9725 51.2111L72.58 48.7271L69.6727 47.0938L68.0652 49.5438ZM130.282 21.9813C130.692 21.675 130.897 21.3347 130.897 20.9604L130.829 20.5861C130.76 20.3479 130.316 20.1438 129.529 19.9736C129.221 19.8715 129.05 19.7354 129.05 19.6333C129.119 19.4632 129.221 19.3271 129.358 19.225C129.529 19.0549 129.734 18.9528 130.008 18.9187L130.111 18C129.598 18 129.153 18.3403 128.708 19.0208C128.366 19.5653 128.229 19.9736 128.229 20.2458L128.264 20.5861C128.298 20.7222 128.4 20.8243 128.537 20.9264C128.708 21.0285 128.948 21.1306 129.255 21.1986C129.358 21.2326 129.392 21.3007 129.392 21.4028L129.29 21.641C128.982 21.8792 128.606 21.9813 128.127 21.9813C127.58 22.0833 127.203 22.1854 127.066 22.3215L126.724 22.7299L126.964 22.9681L127.34 22.6618C127.374 22.6278 127.477 22.5938 127.58 22.5938C127.648 22.6278 127.716 22.6618 127.785 22.6618H128.879C129.392 22.4917 129.871 22.2875 130.282 21.9813ZM130.521 32.9722L129.871 28.7188L129.563 26.4049L129.598 25.7924L129.666 25.0097L129.461 24.8396L129.016 25.5201L128.674 26.0986C128.332 26.7451 128.127 27.3236 128.127 27.8681L128.503 30.7264L129.255 35.184C129.563 36.8514 129.7 38.0424 129.7 38.7569L129.598 40.6965L129.427 42.0917V42.6361L129.255 43.0444L129.05 43.691L129.358 43.8271C129.7 43.0444 130.008 42.2278 130.213 41.3771C130.418 40.7306 130.521 40.2201 130.555 39.8458L130.658 39.5396V39.2674L130.726 38.5528C130.795 38.3826 130.829 38.1444 130.829 37.9062V36.8514L130.726 35.3201L130.521 32.9722ZM104.116 49.5438L107.023 51.2111L108.631 48.7271L105.723 47.0938L104.116 49.5438ZM85.3722 31.6111L85.167 31.8493L84.9618 32.1896L84.7565 32.5639L84.6197 32.8701L84.1067 34.2313L85.3722 35.8306C86.0221 36.8174 86.4667 38.1444 86.6719 39.8118C86.5693 40.1861 86.1931 40.3903 85.5774 40.4924C84.9618 40.5944 84.3461 40.6625 83.6962 40.6625H82.3281C81.302 40.6625 80.4469 40.3903 79.797 39.8458C79.455 39.5396 79.1471 39.0972 78.8393 38.5188C78.8393 38.1104 78.9077 37.6 79.0787 36.9875L79.3182 36.2729L79.0445 36.0347L78.3263 37.6681L77.8474 38.7569C77.6422 39.2333 77.0949 39.6757 76.2056 40.084C75.7268 40.2882 75.3163 40.4583 74.9059 40.5604C74.4954 40.6625 74.085 40.6965 73.6746 40.6965H72.1696C71.1435 40.6965 70.2884 40.4243 69.6727 39.8799C69.3307 39.5736 69.0229 39.1313 68.715 38.5528C68.715 38.1444 68.7834 37.634 68.9545 36.9875L69.1939 36.2729L68.9202 36.0347L68.202 37.6681L67.7231 38.7569C67.5179 39.2333 66.9706 39.6757 66.0814 40.084C65.6025 40.2882 65.1921 40.4583 64.7816 40.5604C64.3712 40.6625 63.9607 40.6965 63.5503 40.6965H62.319C61.2928 40.6965 60.4377 40.4243 59.8221 39.8799C59.48 39.5736 59.1722 39.1313 58.8644 38.5528C58.8644 38.1444 58.9328 37.634 59.1038 37.0215L59.3432 36.3069L59.0696 36.0688L58.4881 37.3618L57.8725 38.791C57.6673 39.1993 57.1542 39.5736 56.4017 39.8458C55.9913 39.9819 55.102 40.2201 53.8022 40.4924C53.1182 40.6965 51.6816 40.9007 49.4584 41.1049C48.8427 41.1729 48.2955 41.241 47.7824 41.275C47.2693 41.309 46.8247 41.3431 46.4485 41.3431C46.3458 41.3431 45.9354 41.3431 45.2513 41.3771C44.5672 41.4111 44.0884 41.4111 43.7806 41.4111L38.0686 41.3431H37.1109L36.0847 41.241L33.9299 40.9347C33.0406 40.7646 32.3565 40.5944 31.7751 40.4583C31.1252 40.2542 30.578 40.05 30.1675 39.8799C29.3466 39.5056 28.6968 39.0292 28.2521 38.4167C27.7733 37.8042 27.4996 37.0896 27.397 36.2729L27.3286 35.7625C27.3286 35.3201 27.397 34.8097 27.5338 34.2313L27.7733 33.3806L27.9443 32.9382L27.6022 32.8021C27.3628 33.1764 27.1234 33.6868 26.9524 34.3333L26.7813 34.8778L26.7129 35.3882L26.6445 36.0007V36.4431C26.6445 37.5319 26.7813 38.5188 27.0208 39.3354C27.2602 40.1521 27.6364 40.7986 28.1153 41.275C29.5176 42.6361 31.3646 43.5889 33.6905 44.0653C34.4088 44.2354 34.9902 44.3715 35.5033 44.4396C35.9821 44.5076 36.5978 44.5417 37.3161 44.5417L40.326 44.7118H42.344C43.6438 44.7118 45.6618 44.6097 48.3296 44.3715C50.9975 44.1333 52.6393 43.9632 53.2208 43.7931C53.5286 43.725 53.8022 43.6229 54.0417 43.5549C54.3153 43.4868 54.5205 43.4188 54.7257 43.3167C54.931 43.2486 55.102 43.1465 55.273 43.0785C55.444 43.0104 55.5808 42.9083 55.7518 42.8403C56.5043 42.466 57.1542 41.9215 57.7699 41.275C58.1119 41.9556 58.5223 42.5 59.0012 42.8743C59.7879 43.4868 60.7798 43.8271 61.8743 43.8271H63.4819C64.2686 43.8271 65.1236 43.5208 66.0471 42.8743C66.7312 42.3639 67.2443 41.8194 67.5863 41.275C67.9626 41.9896 68.3388 42.534 68.8176 42.8743C69.6043 43.4868 70.5962 43.8271 71.725 43.8271H73.7088C74.4954 43.8271 75.3505 43.5208 76.274 42.8743C76.9581 42.3639 77.4712 41.8194 77.8132 41.275C78.1894 41.9896 78.5657 42.534 79.0445 42.8743C79.8312 43.4868 80.7889 43.7931 81.9176 43.7931H83.3884C83.9699 43.7931 84.6881 43.6569 85.5432 43.3507L86.1931 43.0444C86.2957 42.9083 86.3983 42.7382 86.4667 42.5681C86.5693 42.3979 86.6377 42.1938 86.7404 41.9215C86.843 41.6833 86.9456 41.4111 87.014 41.1049C87.1166 40.7986 87.185 40.4924 87.2534 40.1521C87.6297 38.791 87.8007 37.634 87.8007 36.6472C87.8007 35.6944 87.4586 34.6736 86.8088 33.5507C86.3299 32.4958 85.8169 31.8833 85.3722 31.6111ZM101.516 47.1278L99.8061 49.5778L102.713 51.2451L104.321 48.7611L101.516 47.1278Z" fill="white"/>
</g>
</g>
</svg>
