<svg width="85" height="86" viewBox="0 0 85 86" fill="none" xmlns="http://www.w3.org/2000/svg">
<mask id="mask0_1_24" style="mask-type:luminance" maskUnits="userSpaceOnUse" x="0" y="0" width="85" height="86">
<path d="M85 0H0V86H85V0Z" fill="white"/>
</mask>
<g mask="url(#mask0_1_24)">
<path d="M42.5186 84.2535C19.7588 84.2348 1.86019 65.1761 2.06506 42.5148C2.25131 20.3388 19.9451 1.42948 42.7607 1.54148C64.8872 1.67215 82.8789 20.2455 82.8603 42.9255C82.8603 65.6802 64.7382 84.2908 42.5186 84.2535ZM42.6862 0.19748C19.2746 0.122813 0.630937 19.5921 0.742687 43.1308C0.854437 66.5015 19.6843 86.1202 43.4871 85.5975C65.4832 85.1122 84.1082 66.6508 84.2199 43.0188C84.2199 19.2748 65.4273 0.272146 42.6862 0.19748Z" fill="white"/>
<path d="M12.9422 42.4963C13.2589 26.331 26.2591 13.003 42.407 12.9656C59.0764 12.947 72.3001 27.003 71.9835 43.747C71.7041 59.819 58.7225 73.6883 41.8482 73.371C25.9052 73.0536 12.607 59.427 12.9422 42.4963ZM73.3059 42.067C72.7657 25.5656 59.3371 11.099 41.513 11.5843C24.9926 12.0696 11.266 26.107 11.6012 43.7843C11.9179 61.1443 25.868 74.6963 42.2952 74.715C59.9145 74.8083 73.8832 59.7816 73.3059 42.067ZM36.9499 7.45895C37.1361 7.29095 37.3782 7.19762 37.639 7.17895C37.8811 7.17895 38.2722 7.66429 38.2164 7.92562C38.1791 8.05629 38.086 8.05629 38.0115 8.03762C37.639 7.96295 37.2851 7.83229 36.9312 7.66429C36.7636 7.58962 36.894 7.49629 36.9499 7.45895ZM33.616 9.64296C33.6719 9.81096 33.7463 9.81096 33.8953 9.77362C34.4727 9.60562 35.106 9.41895 35.7206 9.34429C35.9814 9.30695 36.1117 9.13895 36.1676 8.87762C36.2235 8.65362 36.3352 8.61629 36.5401 8.70962L38.3467 9.34429C38.5144 9.40029 38.682 9.40029 38.7006 9.13896C38.7006 8.87762 38.8682 8.76562 39.0917 8.72829C39.576 8.65362 40.0416 8.63495 40.5072 8.67229C40.9915 8.70962 41.4012 8.67229 41.5689 8.09362L41.6061 8.05629C41.7365 8.57896 42.0904 8.69096 42.5374 8.63496C43.003 8.57896 43.45 8.57896 43.9156 8.61629C44.3999 8.67229 44.7351 8.56029 44.9027 8.05629H44.9586C45.2752 8.57896 45.3125 8.61629 45.9085 8.63496C46.0016 8.63496 46.0761 8.67229 46.1692 8.69095C46.7094 8.74695 47.2309 9.06429 47.7524 8.67229C47.8269 8.78429 47.8082 8.93362 47.9386 8.98962C48.5346 9.15762 49.1306 9.40029 49.7639 9.15762C49.8384 9.12029 49.8942 9.15762 49.9128 9.21362C49.9501 9.38162 50.0805 9.38162 50.1922 9.40029L51.0862 9.56829C51.1794 9.60562 51.2539 9.62429 51.347 9.51229C51.8126 8.84029 52.0547 8.01895 52.0175 7.19762C51.7567 7.36562 51.5891 7.55229 51.3842 7.73895C51.2725 7.81362 51.2166 7.90696 51.2166 8.05629C51.2166 8.54162 51.2166 8.54162 50.7324 8.44829L50.6765 8.42962C50.4157 8.39229 50.3599 8.26162 50.4716 8.05629L50.8441 7.16029C50.4902 7.34696 50.0432 7.49629 49.9501 7.86962C49.857 8.31762 49.6335 8.26162 49.3355 8.24296C49.112 8.22429 48.8699 8.16829 48.6464 8.07496C48.4042 8.00029 48.3297 7.88829 48.4787 7.62696C48.7954 7.14162 48.8512 6.99229 48.8512 6.69362C48.5346 7.04829 48.0504 7.16029 47.9386 7.68296C47.9014 7.85096 47.7524 7.92562 47.5661 7.86962C47.2867 7.79496 46.9887 7.75762 46.6907 7.70162C46.43 7.64562 46.2065 7.64562 45.9457 7.55229C45.6105 7.44029 45.4429 7.23496 45.4987 6.86162C45.5546 6.54429 45.5919 6.22695 45.5546 5.87229C45.2194 6.24562 44.8655 6.54429 44.9214 7.10429C44.9586 7.53362 44.8655 7.58962 44.4371 7.57095C43.8411 7.53362 43.2265 7.47762 42.6491 7.57095C42.2952 7.62695 42.0904 7.40296 42.109 7.02962C42.1276 6.71229 42.2394 6.37629 42.109 6.02162C41.7551 6.39496 41.4199 6.74962 41.4757 7.30962C41.513 7.49629 41.4199 7.58962 41.215 7.58962C40.5259 7.58962 39.8554 7.64562 39.1476 7.64562C39.0731 7.64562 38.98 7.68296 38.9055 7.60829C38.5702 7.29096 38.2164 6.97362 38.1046 6.48829C37.9929 6.11496 37.937 6.05896 37.6017 6.22696C36.9685 6.54429 36.4097 7.02962 36.2421 7.77629C36.1862 8.07496 36.0186 8.24296 35.7206 8.26162C35.3481 8.31762 34.9756 8.39229 34.6031 8.48562C34.0257 8.63495 34.0257 8.65362 33.8022 8.07496L33.7464 7.94429C33.3366 6.89895 32.9082 5.85362 32.5357 4.69629L32.1632 5.49895C32.1074 5.59229 32.1446 5.66696 32.1632 5.76029C32.2191 5.77896 33.616 9.64296 33.616 9.64296ZM75.4477 28.7016C76.0251 29.1123 76.0251 29.6536 75.783 30.251C75.7085 30.4563 75.5781 30.4563 75.4291 30.307C75.3732 30.251 75.3174 30.195 75.2615 30.1203L74.2371 27.843C74.2371 27.8616 75.4477 28.7016 75.4477 28.7016ZM70.7356 19.8163C70.568 20.1336 70.3631 20.451 70.1582 20.7123C70.0279 20.8616 69.9347 20.8803 69.7857 20.7123C69.4132 20.227 69.0035 19.7976 68.6124 19.331C68.4261 19.1443 68.4634 18.995 68.6496 18.8456C68.7614 18.715 68.9476 18.659 69.0593 18.435C68.482 18.5843 68.0536 18.9203 67.6252 19.2003C67.4017 19.3683 67.3645 19.499 67.5693 19.7043C67.886 20.059 68.2026 20.395 68.4634 20.7683C68.7427 21.1416 69.0221 21.459 69.525 21.179H69.5622C69.7299 21.1603 69.8044 21.2163 69.6926 21.3656L69.5064 21.7016C69.4505 21.8136 69.4505 21.907 69.5436 22.0003C69.8602 22.3176 70.0837 22.7283 70.3259 23.1203C70.5866 23.531 70.7729 24.0163 71.462 23.699L71.2943 23.9603C71.1267 24.2776 71.2571 24.9683 71.5924 25.0803C71.76 25.155 71.909 25.1736 71.9649 25.3976C72.058 25.771 72.2815 26.051 72.7471 26.0136C72.7471 26.0136 72.803 26.0136 72.803 26.0696C72.6726 26.2376 72.3746 26.2936 72.5422 26.6483C73.1755 27.9736 73.8087 29.355 74.4047 30.699C74.5351 30.979 74.7214 31.091 74.9821 31.1096H76.3231C76.4907 31.1096 76.5839 31.035 76.677 30.923C77.273 30.195 77.1612 29.1683 76.4162 28.6643C75.7271 28.1976 74.9821 27.7683 74.2557 27.339C74.0322 27.2083 73.846 27.0216 73.7342 26.779C73.6225 26.5363 73.6783 26.3683 73.9018 26.2376L75.0007 25.659C74.4234 25.5283 73.9019 25.1923 73.4176 25.7336C73.3245 25.8643 73.2686 25.7336 73.25 25.6403L72.7843 24.651C72.7471 24.5763 72.7285 24.4456 72.5981 24.483C72.4305 24.5576 72.3932 24.427 72.3374 24.315C72.1884 24.0536 72.2815 23.8296 72.5795 23.6803C72.8589 23.531 73.1941 23.4376 73.4362 23.139C72.8961 23.0643 72.4118 22.9523 71.9835 23.3256C71.8531 23.4376 71.7414 23.3816 71.6482 23.251L70.866 22.0376C70.4935 21.459 70.4935 21.459 70.9032 20.899L72.0952 19.163L71.462 19.331C71.1267 19.3683 70.8473 19.555 70.7356 19.8163Z" fill="white"/>
<path opacity="0.65" d="M53.4888 77.6827C53.2653 76.824 52.6507 76.488 51.7939 76.7307C51.3097 76.8613 50.9931 77.216 50.7509 77.6453C50.0432 76.9547 48.8512 77.2347 48.2924 78.224L48.2179 78.056C48.2179 77.7947 48.0876 77.7387 47.8454 77.8133C47.5847 77.9067 47.2681 77.9813 46.9887 78.0187C46.8211 78.056 46.8211 78.112 46.8397 78.28L47.6778 81.7707C47.7337 81.9387 47.7896 81.9387 47.9386 81.92C48.2552 81.808 48.5904 81.7147 48.9443 81.6587C49.1678 81.6027 49.1864 81.5093 49.1306 81.3227L48.6836 79.512C48.6649 79.4 48.6463 79.3067 48.6463 79.1947C48.6649 78.9147 48.8139 78.7093 49.0933 78.6347C49.4099 78.5787 49.5589 78.784 49.6334 79.0267L49.7079 79.3067L50.1549 81.0987C50.1922 81.2667 50.2481 81.304 50.4157 81.2667C50.7323 81.1547 51.0676 81.08 51.4214 81.0053C51.6263 80.9493 51.6822 80.8933 51.6077 80.6507C51.4401 80.0907 51.3283 79.5307 51.1979 78.952C51.1607 78.8027 51.1421 78.6347 51.1421 78.4667C51.1421 78.2053 51.3097 78 51.5891 77.9813C51.8498 77.944 52.0547 78.0933 52.1106 78.3547L52.6134 80.4267C52.6507 80.5573 52.6693 80.688 52.8556 80.632C53.2281 80.52 53.6006 80.4267 53.9731 80.352C54.1407 80.3147 54.1407 80.2213 54.1034 80.0907C53.8986 79.3067 53.7123 78.4853 53.4888 77.6827Z" fill="white"/>
<path d="M11.3216 21.4961L14.6555 23.5121C14.8417 23.6428 14.9162 23.6428 15.0652 23.4375C15.5495 22.7468 15.9592 22.0001 16.5552 21.3655C16.8719 21.0295 17.0395 20.6748 16.7415 20.2455L16.7973 20.1708L17.263 20.2641C17.3561 20.2828 17.4306 20.2828 17.4865 20.2081C18.008 19.4615 18.7157 18.9015 19.349 18.2668C19.5166 18.0988 19.5166 17.9495 19.4049 17.7628C19.0882 17.1841 18.6785 16.7175 18.1384 16.3255C17.7659 16.0641 17.4492 15.7468 17.5237 15.2055C17.5423 15.0935 17.4679 14.9628 17.4679 14.8508C17.4679 14.6641 17.412 14.6455 17.2257 14.6828C16.7415 14.7575 16.2759 15.0375 15.7916 14.7201C15.8289 15.0935 15.9406 15.4295 16.0337 15.7655C16.0337 15.8401 16.071 15.9335 16.1641 15.9335C16.5366 15.8215 16.7601 16.1015 17.0209 16.2881C17.5051 16.6241 18.008 16.9415 18.4177 17.3708C18.5109 17.4641 18.6412 17.5575 18.4736 17.7255C17.9707 18.2108 17.4306 18.6588 16.965 19.2188C16.816 19.0508 16.7973 18.9015 16.7601 18.7335C16.667 18.4161 16.4435 18.2855 16.1268 18.2855C15.9592 18.2855 15.8102 18.3041 15.6426 18.3415C14.73 18.6588 14.432 19.7788 15.0466 20.6935C15.326 20.3201 15.6798 20.0588 16.22 20.1708L15.1025 21.6081C15.0093 21.7388 14.879 21.8321 14.8417 21.9815C14.6741 22.4295 14.5251 22.4855 14.134 22.2615L13.9105 22.1308L10.9491 20.3761L11.1167 21.0668C11.0608 21.2908 11.1726 21.4028 11.3216 21.4961ZM9.81297 55.9548C9.81297 55.8428 9.9061 55.8428 9.9806 55.8055C10.1668 55.7308 10.3531 55.6748 10.558 55.5815C10.8746 55.4135 10.9863 55.5255 11.0608 55.8428C11.0981 56.0108 11.1726 56.1601 11.1726 56.3281C11.1726 56.6455 10.9491 56.8695 10.6511 56.8508C10.26 56.8695 9.79435 56.3281 9.81297 55.9548ZM8.84447 56.4961C8.9376 56.8135 9.04935 57.1121 9.19835 57.3921C9.4591 57.9895 9.85023 58.4001 10.5207 58.5308C11.4334 58.7175 12.495 57.8961 12.5136 56.9068C12.5136 56.8695 12.5136 56.7575 12.4764 56.6455C12.2156 55.6001 11.7313 54.6108 11.3775 53.6028C11.3216 53.3975 11.1912 53.4908 11.0795 53.5468L6.4791 55.3201C6.34873 55.3761 6.29285 55.4321 6.34872 55.6001L6.81435 56.7761C6.87022 56.9815 6.98198 56.9815 7.13098 56.9255L8.5651 56.3468C8.7141 56.3095 8.7886 56.3281 8.84447 56.4961ZM14.4133 65.5868C14.1526 65.9601 13.836 66.2215 13.4262 66.2588C13.091 66.2588 12.8116 65.9975 12.8116 65.6615C12.8116 65.5495 12.8302 65.4561 12.8861 65.3628C13.0724 65.0081 13.4076 64.7468 13.7801 64.6535C14.0595 64.5975 14.2643 64.7095 14.4133 64.9148C14.5623 65.1201 14.5623 65.3815 14.4133 65.5868ZM15.8847 65.1948C15.7171 64.5041 15.2701 64.0748 14.5624 63.9255L15.8288 62.9175C15.9778 62.8241 15.9965 62.7495 15.8847 62.6188C15.6612 62.3575 15.4377 62.0775 15.2329 61.7788C15.1025 61.5921 15.0094 61.6108 14.8604 61.7228C13.7429 62.6375 12.5881 63.5335 11.452 64.4295C11.2471 64.5975 10.8932 64.7281 10.8746 64.9521C10.8746 65.1575 11.154 65.3815 11.3216 65.5868C11.6382 66.0348 11.6382 66.0348 12.1225 65.7921L12.1039 65.9228C11.9362 66.9681 12.6812 67.7895 13.7056 67.6961C14.3202 67.6588 14.8045 67.3788 15.2515 66.9681C15.7543 66.5015 16.0524 65.9228 15.8847 65.1948ZM76.9002 57.1308C76.7885 57.3735 76.5277 57.5041 76.267 57.4481C75.969 57.4295 75.671 57.3175 75.4289 57.1308C75.2054 56.9628 75.075 56.7575 75.1681 56.4961C75.2426 56.1788 75.4847 56.0108 75.8014 55.9921C76.1366 56.0668 76.4905 56.1601 76.7512 56.4215C76.9747 56.6268 77.0306 56.8695 76.9002 57.1308ZM78.3716 55.2828C78.1481 55.2268 77.9246 55.1148 77.6825 55.0215L73.9202 53.5281C73.734 53.4535 73.6036 53.4348 73.5291 53.6961C73.4546 53.9948 73.3429 54.2748 73.2125 54.5548C73.0635 54.8348 73.1752 54.9281 73.4174 55.0215L74.7956 55.5628C73.6781 56.1788 73.436 57.8961 74.9632 58.6428C75.522 58.9041 76.0807 59.0161 76.714 58.9228C77.1051 58.8668 77.4404 58.6428 77.6266 58.3068C77.9619 57.8028 77.9991 57.1495 77.6825 56.6268C77.7384 56.5895 77.7942 56.6268 77.8501 56.6455C78.0922 56.7761 78.2226 56.7015 78.2785 56.4588L78.5579 55.6935C78.651 55.4508 78.5951 55.3575 78.3716 55.2828ZM69.5061 70.1601L68.2582 69.0028C68.1092 68.8721 68.0906 68.7975 68.2582 68.6295L69.264 67.5095C69.4316 67.3228 69.5247 67.1921 69.264 67.0241C69.0964 66.9308 69.0032 66.7815 68.8729 66.6508C68.7611 66.5388 68.6866 66.4828 68.5562 66.6508C68.2955 66.9681 68.0161 67.2481 67.7554 67.5468C67.2711 68.0695 67.2711 68.0695 66.7682 67.5841C66.6379 67.4535 66.6006 67.3975 66.7496 67.2668L67.7367 66.1841C67.9044 65.9975 68.221 65.8295 68.221 65.6055C68.1837 65.3815 67.8671 65.2321 67.6995 65.0455L67.4387 64.8028L67.327 64.9148L64.7381 67.7335C64.645 67.8455 64.6636 67.9015 64.7567 67.9948L68.4259 71.4855C68.5376 71.5975 68.5935 71.5788 68.6866 71.4668L69.5434 70.5521C69.6737 70.3841 69.6365 70.2908 69.5061 70.1601Z" fill="white"/>
<path opacity="0.65" d="M61.7022 73.3524C61.2925 72.7737 60.6965 72.6804 60.0818 72.9977C59.5603 73.259 59.281 73.707 59.1506 74.3604L59.0016 74.1177C58.9085 73.8564 58.7781 73.8377 58.5546 73.987C58.3311 74.155 58.089 74.2857 57.8468 74.4163C57.6606 74.5097 57.642 74.5843 57.7537 74.7897L59.2996 77.4963C59.579 78.019 59.5976 78.019 60.1005 77.7204C60.3612 77.5524 60.7337 77.459 60.8082 77.235C60.9013 76.9923 60.5661 76.731 60.4357 76.4697C60.2122 76.0217 59.9142 75.6297 59.7466 75.163C59.6162 74.771 59.8211 74.3977 60.2122 74.3604C60.5102 74.323 60.6406 74.5657 60.771 74.771L61.7208 76.4697C61.7953 76.6377 61.8885 76.675 62.0375 76.563C62.3168 76.3577 62.6335 76.1897 62.9687 76.003C63.0618 75.947 63.1363 75.891 63.0618 75.7417C62.5962 74.9763 62.2237 74.1177 61.7022 73.3524Z" fill="white"/>
<path d="M13.631 62.2639C13.7055 62.0773 13.4447 61.8346 13.333 61.6293C12.9605 60.9199 12.9605 60.9386 12.29 61.3119C11.8616 61.5733 11.4332 61.7973 10.9862 62.0026C10.6882 62.1146 10.3343 61.9839 10.1853 61.6853C10.0177 61.3679 10.2412 61.1999 10.4461 61.0506L11.694 60.3226C11.9175 60.1919 12.2713 60.1359 12.3272 59.9119C12.4017 59.6693 12.141 59.4266 12.0106 59.2026C11.694 58.5866 11.694 58.5866 11.0607 58.9226C10.4833 59.2773 9.85009 59.6133 9.27271 59.9679C8.69534 60.3413 8.49046 60.8639 8.71396 61.4799C8.93746 62.1146 9.34721 62.5066 10.0922 62.6373C9.96184 62.7306 9.92459 62.7866 9.83146 62.8053C9.60796 62.8986 9.57071 63.0293 9.71971 63.2346C9.88734 63.4959 9.99909 63.7386 10.1295 64.0186C10.204 64.1866 10.2971 64.2239 10.4461 64.1119C11.3028 63.6266 12.1596 63.1599 12.9791 62.6746C13.2398 62.5253 13.5565 62.4506 13.631 62.2639Z" fill="white"/>
<path opacity="0.65" d="M30.4308 75.7973C29.8534 75.48 29.2947 75.4613 28.6614 75.8346C28.7173 75.6666 28.7173 75.592 28.7732 75.5173C28.9408 75.2746 28.8104 75.2 28.5869 75.1253C28.3262 75.032 28.0654 74.92 27.8047 74.808C27.6371 74.7146 27.5439 74.752 27.4881 74.9386L26.1657 78.2426C26.1098 78.392 26.1284 78.448 26.2774 78.504C26.5941 78.616 26.9107 78.7466 27.1901 78.8773C27.4508 79.0453 27.5439 78.9333 27.6371 78.672C27.8606 78.0746 28.0654 77.44 28.3634 76.88C28.5497 76.5253 28.8477 76.432 29.1643 76.5813C29.4251 76.7493 29.4996 76.9546 29.3506 77.3466L28.6056 79.2133C28.5497 79.3813 28.5497 79.456 28.7359 79.5306C29.0898 79.6426 29.4251 79.792 29.7417 79.9226C29.8534 79.9786 29.9279 79.9973 30.0024 79.848L30.9523 77.44C31.2317 76.6746 31.0268 76.1146 30.4308 75.7973Z" fill="white"/>
<path d="M76.7511 60.0428C75.913 59.5948 75.1494 59.0721 74.2926 58.6988C73.6594 58.4374 73.0634 58.6801 72.7281 59.2961C72.4674 59.8001 72.4487 60.3041 72.6722 60.9014C72.5419 60.8454 72.4674 60.8081 72.4115 60.7521C72.2252 60.6028 72.0949 60.6214 71.9831 60.8641C71.8714 61.1254 71.7224 61.3868 71.5734 61.6481C71.4616 61.8161 71.4989 61.8908 71.6665 62.0028L74.1622 63.4028C74.3857 63.5521 74.6465 63.7761 74.8514 63.7574C75.0749 63.7014 75.1307 63.3281 75.2611 63.0854C75.615 62.4694 75.5964 62.4881 75.0004 62.1334C74.5534 61.8721 74.1064 61.6294 73.678 61.3308C73.3427 61.1068 73.2869 60.8268 73.4545 60.5281C73.6221 60.2294 73.8456 60.1734 74.2181 60.3601L75.8944 61.3121C76.062 61.4241 76.1737 61.4241 76.2669 61.2001L76.7511 60.3041C76.807 60.2108 76.9001 60.1174 76.7511 60.0428ZM74.125 64.4108L71.2195 62.3388C71.0705 62.2454 71.0332 62.2828 70.9587 62.3948C70.7911 62.6561 70.6235 62.9361 70.4186 63.1788C70.2324 63.4214 70.2324 63.5334 70.4931 63.7201C70.996 64.0374 71.4989 64.4108 71.9831 64.8028C72.3184 65.0641 72.3556 65.4188 72.1507 65.6988C71.9645 65.9414 71.7037 65.9601 71.3499 65.6988L69.804 64.5788C69.6364 64.4481 69.5432 64.4668 69.4315 64.6534C69.2452 64.9521 69.059 65.2321 68.8355 65.5308C68.761 65.6614 68.761 65.7174 68.8914 65.8108L69.8785 66.5201C70.3255 66.8001 70.7166 67.1921 71.2009 67.4161C71.7782 67.6588 72.2811 67.5281 72.6536 67.0428C73.0447 66.5574 73.1379 66.0348 72.9702 65.3814L73.231 65.5494C73.3986 65.7174 73.529 65.7174 73.6594 65.4748C73.827 65.2134 74.0132 64.9521 74.1809 64.6908C74.2554 64.5601 74.2367 64.5041 74.125 64.4108Z" fill="white"/>
<path opacity="0.65" d="M55.3142 77.0857C55.2397 76.7124 55.5004 76.1524 56.0405 76.283L56.2082 76.2644C56.4503 76.3204 56.5993 76.4884 56.6552 76.6937C56.711 76.8617 56.4689 76.8617 56.3758 76.8804L55.5377 77.235C55.37 77.291 55.3328 77.2164 55.3142 77.0857ZM58.1638 77.515L57.4933 77.7204C57.2698 77.7764 57.1022 77.8697 56.9904 78.0937C56.8228 78.4484 56.3944 78.579 56.0592 78.411C55.9847 78.3737 55.9102 78.3177 55.8543 78.2617C55.6122 78.019 55.6308 77.963 55.9474 77.8324L58.2383 76.9177C58.3128 76.8617 58.4059 76.8617 58.4059 76.7124C58.201 76.0217 57.6795 75.4804 57.009 75.219C56.4317 75.051 55.9288 75.219 55.4259 75.4057C54.2339 75.8164 53.6752 76.899 54.0663 78.0564C54.327 78.915 55.0907 79.5497 55.8543 79.5124C56.5248 79.5124 57.1394 79.2324 57.7168 78.859C58.1079 78.5977 58.35 78.2617 58.4804 77.795C58.5177 77.683 58.5735 77.5524 58.5177 77.459C58.4059 77.3844 58.2755 77.4964 58.1638 77.515ZM37.7694 79.5124L36.6519 79.3444C36.4843 79.3444 36.4657 79.2697 36.5215 79.1204C36.6333 78.7657 37.0058 78.5604 37.3783 78.635C37.6949 78.691 37.8998 78.9897 37.8998 79.3444C37.9184 79.4564 37.9184 79.531 37.7694 79.5124ZM38.4585 78.0377C37.8067 77.7017 37.0617 77.6084 36.3539 77.7577C35.5344 77.907 34.9384 78.6724 34.9012 79.6244C34.8453 80.6137 35.2923 81.379 36.149 81.6777C36.6705 81.8644 37.2293 81.9017 37.788 81.883C38.3654 81.8644 38.7938 81.5657 39.1663 81.0617L38.1605 80.8004L37.8439 80.7444C37.7135 80.707 37.6577 80.819 37.5645 80.875C37.192 81.043 36.6705 81.043 36.447 80.5577C36.3912 80.427 36.3353 80.2777 36.3912 80.1657C36.4657 80.035 36.6333 80.1097 36.7637 80.147L39.1477 80.5017C39.2594 80.5017 39.3339 80.5017 39.3525 80.371C39.4643 79.531 39.3712 78.5417 38.4585 78.0377Z" fill="white"/>
<path d="M7.33586 39.5653L7.54073 39.5466C7.70836 39.5466 7.91323 39.5466 8.06223 39.6213C8.32298 39.7333 8.49061 39.92 8.47198 40.2C8.47198 40.48 8.34161 40.7227 8.02498 40.7787L7.55936 40.928C7.07511 41.0586 6.57223 40.7973 6.51636 40.3493C6.47911 39.92 6.79573 39.6026 7.33586 39.5653ZM5.08223 41.9546C6.06936 42.2906 7.16823 42.2906 8.15536 41.9546C9.08661 41.6746 9.60811 40.6853 9.31011 39.752C9.21698 39.4346 9.03073 39.1547 8.78861 38.9307C8.34161 38.52 7.78286 38.4453 7.20548 38.5573C5.90173 38.744 5.36161 39.9946 6.14386 41.0586C5.77136 41.0773 5.41748 41.0026 5.08223 40.816C4.65386 40.5546 4.59798 39.92 4.98911 39.752C5.34298 39.6213 5.30573 39.4346 5.26848 39.1733L5.23123 38.7813C5.23123 38.6133 5.15673 38.6133 5.00773 38.632C4.50486 38.7813 4.11373 39.0427 3.92748 39.584C3.61086 40.5547 4.11373 41.6 5.08223 41.9546ZM9.31011 28.944C9.36598 28.832 9.47773 28.944 9.57086 28.944L10.2786 29.112C10.409 29.1493 10.4462 29.224 10.3904 29.3546C10.2227 29.728 10.0365 30.0453 9.79436 30.3626C9.73848 30.232 9.70123 30.0826 9.71986 29.9333C9.73848 29.672 9.64536 29.4106 9.45911 29.2426C9.36598 29.1493 9.25423 29.056 9.31011 28.944ZM11.6941 25.6026C11.6382 25.2853 11.5824 24.9866 11.7872 24.8C12.0294 24.576 12.2901 24.7813 12.6254 24.8373L11.6941 25.6026ZM8.82586 28.888C8.88173 28.888 8.88173 28.9626 8.90036 29.0186C8.91898 29.168 8.95623 29.28 8.95623 29.4106C8.97486 30.3066 9.38461 30.96 10.0924 31.4266C10.2227 31.52 10.2786 31.5573 10.3717 31.3706C10.5766 31.0346 10.8187 30.6986 11.0609 30.3813C11.2099 30.1573 11.1912 29.9893 11.0236 29.784C10.8932 29.616 10.707 29.504 10.6697 29.2426C10.8374 29.224 10.9491 29.28 11.0795 29.2986C11.6382 29.4293 11.8059 29.3546 12.0294 28.8133C12.1411 28.496 12.2529 28.1786 12.4391 27.9173C12.7185 27.5253 12.7557 27.1333 12.4391 26.76C12.2901 26.592 12.3274 26.4426 12.495 26.2933L13.5939 25.2853C13.6497 25.2293 13.7801 25.1733 13.7242 25.0613C13.4635 24.632 13.3517 24.0533 12.7185 23.96C12.2901 23.904 11.8617 23.792 11.452 23.6986C11.2471 23.6426 11.154 23.7546 11.1167 23.9226C11.0236 24.352 10.9864 24.8 11.0795 25.248C11.1726 25.7333 11.4892 26.088 11.75 26.48C11.8617 26.648 11.8804 26.7413 11.7872 26.9466C11.5265 27.432 11.2285 27.8613 11.0981 28.4026C11.0422 28.608 10.8746 28.6826 10.6697 28.6453L9.71986 28.4213C9.14248 28.2906 8.60236 28.104 7.96911 28.104C8.32298 28.3653 8.36023 28.888 8.82586 28.888Z" fill="white"/>
<path opacity="0.65" d="M43.0772 79.8667C42.8909 79.7734 42.6861 79.7174 42.4812 79.6801L41.4196 79.4561C41.2892 79.4187 41.1774 79.3441 41.1774 79.1947C41.1774 79.0267 41.3078 78.9334 41.4382 78.9334C41.7176 78.8774 41.9969 78.9147 42.1646 79.1947C42.2204 79.2881 42.2763 79.3441 42.3881 79.3254L43.6546 79.2507C43.4869 78.7654 43.2634 78.4481 42.8351 78.2987C42.1459 78.0747 41.4196 78.0561 40.7118 78.2241C40.3021 78.2987 39.9668 78.6161 39.8551 79.0267C39.6688 79.6427 39.9854 80.2401 40.6746 80.4641C41.1216 80.5947 41.5686 80.6694 42.0342 80.8001C42.2018 80.8561 42.3508 80.9121 42.3508 81.1174C42.3322 81.3227 42.1832 81.3974 41.9969 81.4347C41.7176 81.4907 41.4009 81.5094 41.2519 81.2667C41.0657 80.8934 40.7863 80.9494 40.5069 80.9494L39.7806 81.0054C39.5943 81.0054 39.5757 81.0614 39.6129 81.2481C39.7247 81.6401 40.0227 81.9574 40.4138 82.0881C41.1029 82.3307 41.7921 82.3494 42.4812 82.2374C42.7419 82.2001 43.0027 82.0881 43.2076 81.9201C43.9712 81.3414 43.8781 80.2774 43.0772 79.8667Z" fill="white"/>
<path d="M20.0569 70.0666C18.809 70.0666 17.766 71.3546 18.0827 72.5866C18.3434 73.6506 19.1443 74.2293 20.1128 74.5653C20.597 74.7333 21.0254 74.6026 21.4538 74.3599C21.6214 74.2853 21.64 74.1919 21.5097 74.0426C21.2862 73.8373 21.0627 73.6133 20.8578 73.3706C20.7274 73.2213 20.6343 73.184 20.4667 73.2773C20.15 73.4453 19.8893 73.3333 19.6472 73.1093C19.4237 72.9413 19.3305 72.6426 19.405 72.3813C19.5168 71.9519 19.7962 71.6159 20.2059 71.4293C20.6715 71.2239 21.342 71.6346 21.2675 72.1013C21.2117 72.4559 21.3979 72.5119 21.5842 72.6426L21.9567 72.8853C22.4782 73.2026 22.5527 73.1466 22.5713 72.5119C22.5713 71.3733 21.2489 70.0666 20.0569 70.0666ZM55.3513 9.60528C55.4444 9.54928 55.5934 9.41861 55.6493 9.51195C55.7424 9.66128 55.7424 9.86661 55.7052 10.0533C55.7052 10.1653 55.5934 10.1093 55.5375 10.0906C55.314 10.0159 55.0905 9.92261 54.9043 9.79195C54.9043 9.77328 55.3513 9.60528 55.3513 9.60528ZM53.526 10.3519L55.6307 11.1733C55.7983 11.2293 55.8542 11.2293 55.9473 11.0613C56.208 10.5759 56.4315 10.0533 56.3198 9.47461C56.2825 9.30661 56.357 9.19461 56.4874 9.08261C56.7482 8.85861 56.9903 8.59728 57.1952 8.33595C57.3255 8.16795 57.3628 7.77595 57.7353 7.99995C57.7725 8.01861 57.847 7.94395 57.9029 7.92528L58.2754 7.66395C58.6107 7.40261 58.6107 7.40261 58.3313 7.04795C58.1264 6.78661 57.8284 6.54395 57.9774 6.05861L57.0275 6.76795C56.9717 6.82395 56.8972 6.84261 56.9158 6.93595C57.0834 7.64528 56.6364 8.09328 56.2267 8.67195C56.059 8.13061 55.9659 7.66395 55.7983 7.21595C55.5562 6.58128 55.2395 6.00261 54.8112 5.46128C54.718 5.36795 54.6063 5.21861 54.4387 5.38661C54.2152 5.62928 53.9917 5.87195 53.8613 6.17061C53.7309 6.43195 53.7309 6.69328 53.973 6.93595C54.1779 7.14128 54.3455 7.38395 54.5132 7.62661C54.6249 7.79461 54.6808 7.90661 54.867 7.68261C54.9602 7.55195 55.0347 7.71995 55.0533 7.77595C55.2954 8.13061 55.4072 8.52261 55.5375 8.91461C55.5934 9.02661 55.5562 9.10128 55.4258 9.17595C55.1837 9.26928 54.9415 9.34395 54.6994 9.39995C54.1034 9.56795 54.0103 9.49328 53.7868 8.91461C53.5074 9.25061 53.3398 9.64261 53.3025 10.0719C53.2653 10.2213 53.377 10.2959 53.526 10.3519ZM64.3472 14.5333C64.254 14.4773 64.1609 14.3839 64.105 14.2906C64.0305 14.1413 63.9374 14.0106 64.0305 13.8613C64.105 13.7306 64.2913 13.6933 64.4589 13.7493C64.6638 13.7866 64.6452 13.9359 64.6824 14.0853L64.701 14.3466C64.6638 14.4586 64.7569 14.6079 64.6265 14.6639C64.5148 14.7199 64.4217 14.6079 64.3472 14.5333ZM60.6035 15.9706L60.9574 16.2506C61.7583 16.7733 62.6523 16.9413 63.5649 17.0346C63.7325 17.0346 63.8443 16.9786 63.9747 16.8666C64.7197 16.3999 65.2039 15.7466 65.4088 14.8879C65.5205 14.4586 65.6695 14.0479 65.5764 13.5999C65.4833 13.2266 65.2039 13.0213 64.8687 13.1146C64.3472 13.2266 63.8629 13.4133 63.4345 13.7679C62.9503 14.1973 62.9317 14.7199 63.4345 15.1493C63.6953 15.3546 63.9747 15.4666 64.3285 15.4106C64.3844 15.4106 64.4589 15.3546 64.4962 15.4479C64.6265 15.7093 64.1795 16.3439 63.7698 16.3439C62.9503 16.2319 62.168 15.8959 61.5348 15.3546C60.8457 14.7759 60.9015 14.0106 61.6093 13.4506L62.1494 13.0586C62.2053 13.0026 62.3543 12.9466 62.317 12.8346C62.2612 12.7226 62.1308 12.7786 62.0377 12.8346C61.4603 13.1519 60.9202 13.5066 60.5104 14.0106C59.8958 14.6826 59.9517 15.3546 60.6035 15.9706Z" fill="white"/>
<path opacity="0.65" d="M46.5974 80.9123C46.2436 81.043 46.1132 80.931 46.0946 80.539C46.0573 80.1843 46.0387 79.8483 45.9828 79.5123C45.9456 79.251 45.9828 79.1203 46.2994 79.1017C46.7837 79.0643 46.7651 79.0457 46.7278 78.579C46.6906 77.9817 46.6906 77.9817 46.1318 78.0003C45.8897 78.019 45.8524 77.9443 45.8524 77.7203C45.8524 77.403 45.7966 77.0857 45.7779 76.7497C45.7779 76.563 45.7221 76.5257 45.5544 76.619C45.3123 76.787 45.0702 76.955 44.8281 77.1043C44.4742 77.2723 44.2321 77.4777 44.3438 77.9443C44.3997 78.0377 44.3997 78.187 44.2321 78.1683C43.8037 78.131 43.8223 78.411 43.8596 78.7097L43.9154 79.0643C43.8968 79.307 43.9713 79.3817 44.1948 79.3257C44.4183 79.2697 44.4742 79.363 44.4928 79.587C44.5487 80.1283 44.5487 80.6697 44.6604 81.211C44.8281 81.9017 45.1074 82.163 45.8524 82.163C45.9642 82.1257 46.1132 82.1257 46.2808 82.107C47.1003 82.0137 47.1003 82.0137 46.9699 81.1737C46.8954 80.875 46.8396 80.8003 46.5974 80.9123Z" fill="white"/>
<path d="M65.5391 73.1842C65.4087 72.9789 65.297 72.9416 65.1293 73.1656C64.9058 73.4456 64.7382 73.4269 64.5333 73.1282L64.0305 72.4189C63.7138 71.9709 63.7138 71.9522 64.1608 71.6162C64.3285 71.5042 64.3843 71.3922 64.2167 71.2242L64.1236 71.0562C63.7511 70.5522 63.7511 70.5522 63.2482 70.8882C63.0992 71.0002 63.0433 71.0002 62.9502 70.8509L62.2238 69.8242L62.168 69.8989C62.0003 70.2722 61.8141 70.6455 61.6092 71.0002C61.4416 71.2615 61.4416 71.4482 61.6651 71.6535C61.8513 71.8215 61.87 71.9709 61.6092 72.1202C61.4416 72.1949 61.423 72.3069 61.5533 72.4749C61.7396 72.6989 61.8886 72.9416 62.0562 73.1656L62.2425 73.0349C62.4287 72.8295 62.5405 72.8669 62.6895 73.0909C62.9502 73.5016 63.2482 73.8936 63.5462 74.2856C64.0305 74.8829 64.4588 74.9576 65.0921 74.5469C65.2411 74.4535 65.3715 74.3602 65.5018 74.2295C66.0792 73.7442 66.0792 73.7442 65.5763 73.1842H65.5391Z" fill="white"/>
<path opacity="0.65" d="M34.8635 77.3283C34.1744 77.1229 34.1744 77.1229 33.7832 77.7203L32.8147 79.1949L32.7216 79.1763V77.2909C32.7216 76.6936 32.7216 76.6936 32.1442 76.4883L31.5669 76.3203C31.213 76.2083 31.213 76.2083 31.2502 76.5629C31.362 77.5523 31.4551 78.5229 31.6041 79.5123C31.6414 79.8483 31.5482 80.3149 31.7717 80.5203C32.0325 80.7256 32.4236 80.7256 32.7589 80.8376C32.9265 80.8936 33.0196 80.8749 33.1314 80.7256L34.8449 78.5416L35.6457 77.5336L34.8635 77.3283ZM27.6742 73.1096C27.6742 72.9976 27.6184 72.9603 27.5439 72.9416L26.4077 72.3069C26.2587 72.2509 26.2215 72.2509 26.147 72.4003L23.8002 76.8803C23.7071 77.0856 23.763 77.1416 23.9306 77.2163L24.9177 77.7576C25.1226 77.8883 25.2344 77.8696 25.3461 77.6269C26.0725 76.1896 26.8361 74.7523 27.5811 73.3149C27.5625 73.2963 27.6742 73.1096 27.6742 73.1096Z" fill="white"/>
<path d="M18.7156 66.5386C18.846 66.4266 18.8832 66.3519 18.7342 66.2212L17.9706 65.3812C17.8961 65.2692 17.803 65.2692 17.7099 65.3812L14.0594 68.8532C14.0221 68.9092 13.9476 68.9466 13.9476 69.0212C13.9476 69.0772 14.8975 70.0852 14.9534 70.1039L15.0837 69.9919L15.866 69.2639C15.8846 69.2826 18.7156 66.5386 18.7156 66.5386ZM78.4274 45.0346C78.3529 45.0346 78.2597 45.0346 78.2597 44.9226C78.2597 44.7172 78.5577 44.1199 78.6695 44.1012C78.7999 44.1012 79.1537 44.3812 79.1537 44.5306C79.1723 44.6986 78.7254 44.9972 78.4274 45.0346ZM77.9804 43.2239C77.8127 43.2239 77.6637 43.2799 77.4961 43.4479C77.2167 43.7279 77.1236 44.1012 77.0491 44.4932C76.9932 44.7172 77.1236 45.0159 76.9374 45.1466C76.7697 45.2772 76.5276 45.2586 76.3041 45.3146C75.7454 45.4639 75.1866 45.6319 74.7024 45.9492C74.5906 46.0052 74.4416 46.0426 74.4416 46.1732C74.4416 46.3412 74.6092 46.3226 74.7024 46.3412L75.4101 46.5466C75.5777 46.6026 75.6895 46.5652 75.8385 46.4532C76.211 46.1732 76.658 45.9866 77.1236 45.9119C77.7569 45.7999 78.3901 45.8372 78.9861 45.7439C79.3959 45.6879 79.787 45.5572 80.1036 45.2586C80.3644 44.9786 80.4202 44.6799 80.1595 44.3812C79.638 43.6906 78.8371 43.2799 77.9804 43.2239ZM79.489 39.0799C79.9546 38.6319 79.9546 38.6506 79.3959 38.2959C79.1351 38.1279 78.9302 38.1092 78.6881 38.2772C77.9804 38.7626 77.1795 39.0426 76.3786 39.3039C75.8757 39.4719 75.3356 39.4719 74.8327 39.5839C74.7023 39.6212 74.5534 39.6399 74.572 39.8079C74.5906 39.9572 74.7396 39.9759 74.8327 39.9759C75.6708 39.9759 76.509 40.1066 77.3471 39.8639C77.6078 39.7892 77.8686 39.7146 77.9431 40.1252C77.9431 40.1812 77.999 40.2746 78.0735 40.3119C78.2784 40.4799 78.2597 40.6852 78.1293 40.8906C78.0735 40.9652 78.0735 41.0586 78.0549 41.1519C77.9059 41.6372 78.0362 41.9172 78.4646 42.1599C78.8371 42.3466 79.2655 42.3466 79.6194 42.4586C79.7311 42.4212 79.8429 42.4586 79.8801 42.3279C79.936 42.1972 79.8242 42.1412 79.7125 42.0666C79.6752 42.0479 79.638 42.0106 79.5821 42.0106C79.2096 41.9172 79.2096 41.5252 79.4145 41.2639C79.5262 41.0959 79.6752 41.0772 79.8801 41.0959C79.9546 41.0959 80.0477 41.0586 80.085 40.9652C80.1222 40.8719 80.0291 40.8346 79.9546 40.7972L79.5821 40.5359C78.8371 40.0319 78.7999 39.7146 79.489 39.0799ZM4.2626 44.6239C5.69673 44.7359 6.98185 45.2586 8.1366 46.1546C8.39735 46.3599 8.6581 46.4719 8.99335 46.4719C9.23548 46.4532 9.27273 46.3786 9.27273 46.1546V43.5412C9.27273 42.8506 9.27273 42.8506 8.5836 42.8506C8.34148 42.8506 8.30423 42.9252 8.30423 43.1492V45.2212C8.1366 45.1092 8.02485 45.0532 7.93173 44.9786C6.9446 44.2506 5.77123 43.7839 4.5606 43.6346C3.98323 43.5412 3.98323 43.5412 3.98323 44.1199V44.3066C3.94598 44.5119 4.02048 44.6052 4.2626 44.6239ZM8.82573 49.8319C9.38448 49.8319 9.38448 49.8319 9.38448 49.2532C9.38448 49.1226 9.44035 48.9919 9.27273 48.8986C8.67673 48.6372 8.32285 48.0959 8.0621 47.5359C8.02485 47.4612 8.00623 47.3866 7.89448 47.3866H7.07498C7.20535 47.9279 7.50335 48.3012 7.7641 48.7306C7.57785 48.6932 7.3916 48.6932 7.20535 48.6932H4.7096C3.90873 48.6932 3.90873 48.6932 3.90873 49.5146C3.90873 49.7759 3.98323 49.8132 4.20673 49.8132L8.82573 49.8319ZM4.20673 37.0639L9.12373 37.0079C9.3286 37.0079 9.38448 36.9519 9.38448 36.7466V36.3359C9.38448 36.2052 9.3286 36.1306 9.21685 36.0746C8.8071 35.9066 8.47185 35.5892 8.30423 35.1786C8.09935 34.5626 7.67098 34.5439 7.18673 34.5999L7.07498 34.6186C7.1681 35.1412 7.4661 35.5146 7.81998 35.9439H4.69098C3.8901 35.9439 3.90873 35.9439 3.90873 36.7652C3.90873 37.0079 3.9646 37.0639 4.20673 37.0639ZM22.8131 13.5066C23.018 14.0106 23.3905 14.2159 23.9306 14.1786C24.1914 14.1786 24.4149 14.0479 24.6197 13.9359L26.9479 12.6106C27.7487 12.1626 27.7487 12.1626 27.637 11.2666C27.5252 10.3892 27.0037 9.71724 26.296 9.56791V10.1466C26.2401 10.4266 26.296 10.6506 26.6126 10.7252C26.7244 10.7626 26.8361 10.8932 26.9292 10.9866C27.1714 11.2292 27.1527 11.3039 26.8547 11.4719L24.4335 12.8532C23.5581 13.3386 23.1111 13.1706 22.7759 12.2186C22.72 12.0506 22.7386 11.8639 22.5337 11.7706C22.422 11.9012 22.4779 12.0506 22.4779 12.1812C22.5151 12.6479 22.6269 13.0772 22.8131 13.5066ZM66.8426 16.5306C67.0475 16.5679 67.271 16.5866 67.3827 16.8106C67.4945 17.0532 67.4758 17.2959 67.2896 17.4452C67.122 17.5759 66.9357 17.3892 66.8054 17.2586C66.7122 17.1652 66.6191 17.0532 66.5632 16.9412C66.4701 16.6799 66.5819 16.5306 66.8426 16.5306ZM65.8368 16.8666C65.5947 17.2212 65.6506 17.5572 65.93 17.8186C66.3584 18.2479 66.8053 18.1359 67.2896 17.8559C67.2337 18.0426 67.122 18.1919 66.9543 18.3039C66.4701 18.6586 65.9114 18.6212 65.3712 18.5652C64.5145 18.5092 63.695 18.3412 63.2666 17.4452C63.2107 17.3519 63.1362 17.2026 63.0245 17.2772C62.8755 17.3519 63.0245 17.4826 63.0617 17.5759C63.2852 18.0612 63.546 18.4719 63.8626 18.9012C64.2351 19.3866 64.7193 19.5919 65.334 19.4986C65.8741 19.4052 66.377 19.2186 66.8426 18.9012C67.6435 18.3599 68.2954 17.7066 68.3885 16.6426C68.4257 16.2506 68.2954 15.9706 67.9042 15.9706C67.122 15.9892 66.3584 16.1386 65.8368 16.8666ZM19.3489 68.8906C19.0509 68.6292 18.7901 68.3492 18.5107 68.0879L18.399 67.9759L18.2686 68.1066L15.8101 70.7199C15.6984 70.8319 15.7356 70.9066 15.8101 70.9812L16.611 71.7839C16.7227 71.9146 16.7972 71.8959 16.8904 71.7839C17.6912 70.9066 18.5107 70.0292 19.3302 69.1892C19.4606 69.0772 19.4606 69.0212 19.3489 68.8906ZM29.3691 12.5359C29.3691 12.6479 29.4622 12.6479 29.5367 12.6666C29.9651 12.7599 30.3935 12.7786 30.8032 12.7786H31.1199C31.8835 12.7786 32.1815 12.5546 32.4236 11.8079C32.6099 11.2666 32.6657 10.7066 32.6099 10.1652C32.5726 9.23191 31.9766 8.42924 31.1199 8.09324C31.0454 8.05591 30.915 7.98124 30.8777 8.09324C30.8032 8.41057 30.8032 8.72791 30.8405 9.04524C30.8591 9.21324 31.0826 9.19457 31.1944 9.25057L31.7345 9.53057C32.107 9.77324 32.1815 9.94124 32.0511 10.3706C31.8649 10.9679 31.5296 11.4906 31.1385 11.9572C30.915 12.2746 30.5425 12.4426 30.1514 12.4426H29.5367C29.4809 12.4799 29.4064 12.4426 29.3691 12.5359ZM74.8514 36.2052C74.7582 36.2426 74.6278 36.2612 74.6465 36.3732C74.6465 36.5039 74.7582 36.5412 74.87 36.5786C75.2425 36.6346 75.5777 36.6532 76.0434 36.6719L77.0491 36.6159C78.0176 36.5226 78.9489 36.2799 79.787 35.7386C79.9546 35.6266 80.2712 35.5146 80.234 35.2906C80.234 35.1039 79.9174 35.1039 79.7311 35.0292L79.5821 34.9732C79.2468 34.7866 78.8371 34.8239 78.5391 35.0479C77.7941 35.5332 76.9932 35.8506 76.1179 35.9999C76.0992 35.9812 74.8514 36.2052 74.8514 36.2052ZM80.0664 48.7866L79.34 48.5252C79.1165 48.4319 78.8744 48.4692 78.6881 48.5999C77.9804 49.0852 77.1795 49.4026 76.3414 49.5706L74.9631 49.8132C74.8141 49.8506 74.6465 49.8692 74.6465 50.0372C74.6465 50.2052 74.8141 50.2052 74.9445 50.2239C75.317 50.3172 75.6895 50.2799 76.062 50.2799C76.8256 50.3172 77.5706 50.2239 78.297 50.0186C78.9489 49.8319 79.5635 49.5892 80.1036 49.1412C80.2899 48.9919 80.2899 48.8799 80.0664 48.7866ZM18.8646 14.3279L19.74 15.1679L21.3976 16.7546C21.3604 16.1946 21.1555 15.6532 20.8016 15.2052C20.3174 14.6266 19.8145 14.0852 19.2744 13.5439C18.9764 13.2266 18.6784 12.9652 18.2872 12.5919C18.3431 12.9652 18.399 13.2266 18.4176 13.4692C18.4362 13.8612 18.6039 14.1039 18.8646 14.3279ZM57.9771 12.5172C58.1634 12.4426 58.3124 12.3306 58.4614 12.1999C58.778 11.9199 59.0387 11.5652 59.225 11.1732C59.7092 10.1652 60.119 9.15724 60.4915 7.99991L59.7837 8.44791C59.4671 8.61591 59.2995 8.87724 59.1691 9.25057C58.9642 9.88524 58.7035 10.5199 58.48 11.1546L57.9771 12.5172ZM28.4937 9.99724L29.425 11.5839C29.5367 11.2666 29.5367 10.9866 29.4809 10.6879C29.3132 9.82924 28.8476 9.10124 28.4751 8.33591C28.2144 7.81324 27.935 7.32791 27.6184 6.84257L27.5439 7.36524C27.4135 7.88791 27.488 8.37324 27.8232 8.82124C28.084 9.17591 28.2702 9.60524 28.4937 9.99724ZM43.8966 4.84524C44.0084 4.84524 44.0642 4.78924 44.1015 4.71457C44.2877 4.47191 44.4926 4.45324 44.7347 4.65857C44.7906 4.71457 44.9024 4.73324 44.9582 4.78924C45.1259 4.93857 45.2376 4.88257 45.3866 4.73324C45.8709 4.28524 45.8522 4.30391 45.3307 3.98657C45.07 3.81857 44.8651 3.79991 44.6789 4.06124C44.5671 4.21057 44.4181 4.21057 44.2877 4.11724L43.9152 3.87457C43.8407 3.81857 43.7662 3.76257 43.6917 3.87457L43.2634 4.30391C43.2075 4.35991 43.1889 4.41591 43.2634 4.47191C43.4496 4.62124 43.6731 4.75191 43.8966 4.84524ZM19.5537 67.0052L19.4234 66.8932L19.2185 67.1172C19.0509 67.2852 18.8087 67.4346 18.7715 67.6026C18.7342 67.8452 19.0509 67.9759 19.2185 68.1252C19.8145 68.7786 19.8145 68.7599 20.3919 68.0692C20.5036 67.9572 20.4664 67.9012 20.3919 67.8079C20.4105 67.8266 19.5537 67.0052 19.5537 67.0052ZM65.4271 12.0692C65.6692 12.1066 65.6879 12.3679 65.7624 12.5546C65.8741 12.7972 66.0045 12.8719 66.2652 12.7972C66.7495 12.6666 66.7495 12.7039 66.526 12.2186C66.4142 11.9572 66.2839 11.7706 65.9672 11.9012C65.7437 11.9759 65.6506 11.8452 65.5575 11.6399C65.334 11.1359 65.3153 11.1546 64.8125 11.2852L64.589 11.3412C64.6448 11.6026 64.738 11.8452 64.9056 12.0319C65.0732 12.1999 65.2595 12.0506 65.4271 12.0692ZM6.55348 30.2692C6.68385 30.3812 6.81423 30.1759 6.90735 30.0826C7.03773 29.9892 7.27985 29.9146 7.1681 29.6906C6.98185 29.3732 7.13085 29.2052 7.37298 29.0186C7.48473 28.9252 7.6151 28.8506 7.63373 28.7012V28.6452C7.52198 28.4586 7.4661 28.1599 7.3171 28.0852C7.20535 27.9919 7.05635 28.2532 6.90735 28.3466C6.73973 28.4399 6.59073 28.5519 6.73973 28.7946C6.90735 29.0559 6.7956 29.2612 6.55348 29.3919C6.44173 29.4479 6.25548 29.5599 6.2741 29.6159C6.31135 29.8586 6.38585 30.1199 6.55348 30.2692ZM23.0366 10.3332H23.5209C23.614 10.3146 23.7257 10.2959 23.7257 10.1652C23.7816 9.75457 24.0424 9.73591 24.359 9.77324C24.4894 9.77324 24.6384 9.84791 24.7129 9.67991C24.7687 9.47457 24.8991 9.23191 24.8246 9.04524C24.7687 8.93324 24.508 9.04524 24.3404 9.00791H24.21C24.0424 8.98924 23.9492 9.06391 23.9492 9.21324C23.912 9.54924 23.6885 9.62391 23.465 9.58657C23.0366 9.58657 23.0366 9.58657 22.9435 9.94124C22.9249 9.99724 22.9435 10.0719 22.9062 10.1279C22.8504 10.2399 22.869 10.3332 23.0366 10.3332ZM40.4696 5.38657C40.6 5.47991 40.6372 5.33057 40.7117 5.27457C40.898 4.99457 41.1029 4.97591 41.345 5.18124C41.4009 5.21857 41.4381 5.25591 41.5126 5.27457C41.6057 5.31191 41.6989 5.46124 41.792 5.38657C41.9596 5.21857 42.0714 5.06924 42.2204 4.88257C42.0527 4.71457 41.8479 4.62124 41.6616 4.50924C41.5312 4.41591 41.4754 4.50924 41.4009 4.56524C41.0284 4.90124 41.0284 4.90124 40.6186 4.63991C40.6 4.62124 40.5627 4.60257 40.5441 4.58391C40.451 4.52791 40.3765 4.45324 40.2834 4.58391C40.153 4.75191 39.9295 4.86391 39.9667 5.05057C40.004 5.23724 40.2647 5.27457 40.4696 5.38657ZM74.4602 22.2799C74.6837 22.2799 74.5906 21.9999 74.6279 21.8506L74.6837 21.5892C74.7582 21.3279 74.6279 21.2159 74.4044 21.1786C73.5849 21.0106 73.7711 20.9172 73.6593 21.7572C73.6593 21.7946 73.6407 21.9252 73.6966 21.9626C73.9201 22.1679 74.1808 22.2799 74.4602 22.2799ZM40.9725 4.43457C41.0097 4.47191 41.4381 4.06124 41.4567 4.02391C41.4567 3.96791 41.047 3.57591 40.9725 3.53857C40.9166 3.53857 40.451 3.96791 40.4882 4.02391C40.5814 4.21057 40.7862 4.30391 40.9725 4.43457ZM31.8276 22.4106C32.3119 22.4106 32.7775 22.3172 33.2617 22.1492C33.7274 21.9626 34.1557 21.7012 34.6214 21.6079C34.7517 21.5706 34.8821 21.5332 35.0125 21.6639C34.2116 22.1492 33.2617 22.3919 33.001 23.5306C33.6715 23.3999 34.2116 23.1199 34.7331 22.7466C35.1615 22.4292 35.6085 22.3732 36.1114 22.6346L35.4222 22.9892C34.5282 23.3999 33.895 24.0159 33.7274 25.0612C33.6715 25.5092 33.4107 25.9199 33.2804 26.3306C33.1872 26.6479 33.2245 26.9279 33.5039 27.0959C33.7646 27.2639 33.7832 27.4506 33.7832 27.6932V29.0559C34.0626 28.5892 34.3047 28.1226 34.5655 27.6559C34.6027 27.5812 34.6027 27.3946 34.7704 27.4879C35.0125 27.6559 35.1429 27.5252 35.2546 27.3199L35.8506 26.0506C35.9251 25.9012 35.981 25.7519 36.1672 25.6772C36.2976 26.1626 36.2231 26.6852 36.3721 27.2266C36.7632 26.5919 37.0612 25.9386 37.6945 25.6212C37.4151 26.3119 37.3779 27.0586 37.3779 27.7679C37.3779 28.1972 37.471 28.6079 37.5455 29.0372C37.62 29.6159 37.6572 30.1759 37.7317 30.8106C37.9925 30.2506 38.3836 29.9146 38.8492 29.6719C39.11 29.5039 39.2031 29.3359 39.11 29.0559C39.0355 28.7572 39.1472 28.5332 39.3894 28.4212C39.5942 28.3092 39.6687 28.1599 39.6687 27.9359C39.706 27.3012 40.0412 26.7786 40.302 26.2372C40.2461 28.2346 40.1902 30.2132 40.1343 32.2106L40.004 36.3919L39.8177 43.7466C39.8177 44.0079 39.706 44.1012 39.5011 44.1572C39.0169 44.3252 38.5512 44.3252 38.0484 44.2132C37.3034 44.0452 36.5584 44.0079 35.7947 44.0826C34.6772 44.2506 33.5597 44.3626 32.4422 44.4932C32.3119 44.5119 32.0697 44.4746 32.0697 44.6052C32.0325 44.7919 32.256 44.8666 32.4422 44.9039L32.7775 44.9599L33.7274 45.0159C34.6772 45.1092 35.534 45.4266 36.13 46.2479C36.2045 46.3412 36.279 46.4159 36.3907 46.3226C37.1171 45.9866 37.8994 45.8186 38.6816 45.7066C39.3521 45.6132 40.004 45.5199 40.6745 45.7626C40.8421 45.8186 40.9911 45.8559 40.9911 46.0799C39.855 46.0799 38.7002 45.9306 37.6014 46.5092C37.9739 46.6026 38.2532 46.7706 38.4954 46.9946C38.663 47.1439 38.8492 47.1626 39.0355 47.0132C39.259 46.8452 39.5197 46.8079 39.7991 46.8266C40.1716 46.8639 40.5069 47.0319 40.8607 47.1439C41.345 47.2932 41.8665 47.4612 42.3507 47.1999C42.686 47.0319 43.0771 47.0132 43.4124 47.1626C43.729 47.2746 44.0829 47.3306 44.3995 47.1812C45.4425 46.7332 46.5786 46.6026 47.6961 46.8079L48.2549 46.8452C47.6775 46.3226 47.0256 46.1546 46.3924 45.8932C46.5227 45.7626 46.6717 45.6879 46.858 45.6319C47.4726 45.4639 48.0872 45.5386 48.7205 45.6692C49.0371 45.7439 49.3537 45.8186 49.5586 45.4639C49.9311 44.7546 50.5644 44.5119 51.2721 44.3439C51.3839 44.3066 51.5329 44.3439 51.5701 44.1946C51.5887 44.0639 51.477 43.9519 51.3839 43.8772C51.0672 43.6159 50.6947 43.6159 50.3222 43.6346C49.54 43.6532 48.795 43.8959 48.0314 43.8026C47.2864 43.6906 46.5414 43.7279 45.815 43.9146C45.0513 44.0826 44.3064 44.1946 43.5427 43.9146C43.3751 43.8586 43.282 43.7652 43.2634 43.5412L42.9095 35.9626L42.6301 29.4106L42.4997 26.8719C42.4997 26.7039 42.537 26.5732 42.6674 26.5546C42.835 26.4986 42.8722 26.6479 42.9095 26.7599L43.282 27.8426C43.5427 28.6452 43.9152 29.3546 44.5671 29.8772C44.8465 30.1199 44.8837 30.1199 44.9582 29.7652L45.0514 29.4852C45.1631 29.2052 45.3121 29.1679 45.5356 29.3546C45.7032 29.5226 45.8522 29.6719 46.0199 29.8772C46.3365 28.9626 46.0757 28.0852 46.0757 27.1519C46.5972 27.8426 47.0815 28.4772 47.2864 29.2426C47.3422 29.4852 47.4167 29.5039 47.5844 29.3359C47.901 29.0372 48.0127 28.6826 48.0686 28.2532C48.0686 28.0852 48.0313 27.8239 48.2362 27.8052C48.6087 27.7492 48.4411 27.5252 48.4039 27.3572C48.2549 26.9466 48.1245 26.5172 48.05 26.0692C47.8824 25.2292 47.5657 24.4639 46.8952 23.9039C46.8207 23.8292 46.6904 23.7919 46.6345 23.6426C47.2119 23.7172 47.6402 24.0159 47.9569 24.4452C48.3293 24.9306 48.5342 25.5092 48.8136 26.0506C48.944 26.2746 49.0557 26.4986 49.2234 26.6852C49.391 26.8346 49.5027 26.8532 49.5772 26.5732L49.8007 25.6212C50.0056 24.6692 49.838 23.8666 49.0371 23.2692C48.6646 23.0079 48.348 22.7092 48.0127 22.4292C48.199 22.2799 48.3666 22.3359 48.5342 22.3732C48.9626 22.4852 49.2979 22.7466 49.5959 23.0639C49.7449 23.2319 49.9125 23.3439 50.0987 23.3626C50.4712 23.3999 50.732 23.6052 50.9741 23.8479C51.03 23.9226 51.0672 24.0719 51.1976 24.0159C51.2907 23.9599 51.2907 23.8106 51.2535 23.6986L51.0859 23.2506C50.9927 23.0452 50.9741 22.8212 51.03 22.6159C51.2535 21.6639 50.8251 20.8612 49.9125 20.5252C49.391 20.3199 48.8322 20.2639 48.2921 20.1146C47.8637 20.0026 47.4354 19.8906 47.0629 19.4426L49.0371 19.7972C49.6704 19.9279 50.2664 20.1706 50.881 20.4319C50.9369 20.3012 50.881 20.1892 50.881 20.0772C50.7879 19.5919 50.4154 19.2746 50.0801 18.9572C49.8939 18.7892 49.5959 18.6399 49.5959 18.3599C49.5586 18.0986 49.4282 18.0986 49.2606 18.0986C49.1675 18.0986 49.0744 18.0799 48.9812 18.0426C47.8078 17.7812 46.6904 17.3146 45.4797 17.1652C47.1374 17.1652 48.795 17.6132 50.4899 17.6132C50.434 17.4452 50.3409 17.4452 50.2664 17.3706C49.7262 16.9599 49.1488 16.6239 48.5156 16.3626C46.5227 15.5039 44.6416 15.5599 42.835 16.9226C42.7419 16.9972 42.6674 17.2026 42.5184 17.0906C42.3321 16.9786 42.2204 16.7919 42.2017 16.5866C42.2017 16.4372 42.2576 16.3252 42.3321 16.1946C42.7605 15.5039 42.5742 14.8506 42.2017 14.2159C42.1272 14.0852 42.0714 14.0479 41.941 14.1599C41.4754 14.5146 41.047 14.8692 40.6745 15.3172C40.1902 15.8586 39.9667 16.4559 40.1902 17.1839C40.2834 17.4452 40.3579 17.7626 40.2461 18.0612C40.2089 18.1732 40.2089 18.3226 40.0785 18.3599C39.9295 18.3786 39.9109 18.1919 39.855 18.0986C39.7432 17.8559 39.6315 17.5946 39.5197 17.3332C39.1472 16.4186 38.4581 16.0079 37.5455 15.9519C36.2976 15.8959 35.0683 16.1012 33.895 16.5306C34.8449 16.8479 35.683 17.3332 36.2976 18.2106C34.7704 17.8372 33.448 18.2106 33.0569 19.0879C33.5784 19.1439 34.0812 19.1626 34.6027 19.2372C34.9566 19.2746 35.2919 19.3492 35.5526 19.7786C34.9194 19.5732 34.342 19.5172 33.8019 19.8159C33.3735 20.0212 32.9637 20.2452 32.5912 20.5439C32.0697 20.9732 31.7159 21.5146 31.6041 22.2052C31.5855 22.3546 31.6414 22.4106 31.8276 22.4106Z" fill="white"/>
<path d="M45.0515 63.347C44.9398 63.515 44.7535 63.3657 44.6045 63.3097C44.0085 63.067 43.3194 63.291 42.9655 63.851C42.7048 64.2804 42.742 64.8217 43.0214 65.2324C43.338 65.6617 43.7664 65.867 44.3065 65.755C44.8839 65.6244 45.4054 65.3257 45.871 64.971C46.0759 64.803 46.1876 64.803 46.3553 65.0457C46.8395 65.8484 47.361 66.595 47.8453 67.3977C48.3481 68.2004 48.9628 68.9284 49.7823 69.3764C51.0488 70.0857 52.3339 70.1604 53.5818 69.3204C54.2895 68.8724 54.4199 68.1817 54.3081 67.4164C54.1964 66.707 53.7121 66.427 53.0975 66.2777L52.0918 66.035C51.4399 65.867 50.8625 65.6244 50.3596 65.1204C49.7823 64.5044 49.3353 63.795 48.851 63.1044C48.7951 63.0297 48.6461 62.9177 48.7765 62.787C48.8696 62.6937 48.9814 62.5817 49.149 62.619C49.2235 62.619 49.3166 62.675 49.3911 62.675C49.894 62.7497 50.341 62.619 50.6763 62.1897C50.9929 61.7604 51.0115 61.2937 50.7508 60.8457C50.3969 60.211 49.5401 60.043 48.8883 60.4537C48.5158 60.715 48.1619 61.0324 47.8453 61.3497C47.6776 61.5177 47.6218 61.499 47.4914 61.3497C46.2808 59.9124 45.0515 58.531 43.7664 57.1684C43.5988 57.0004 43.636 56.9444 43.7664 56.8137C45.1446 55.5257 46.5788 54.275 48.0315 53.043C51.0115 50.4297 54.364 48.2457 57.9586 46.5657C61.1808 45.1284 64.5146 44.1764 68.0161 43.859L69.2826 43.7284C69.0778 43.635 68.8729 43.579 68.668 43.5604C64.2353 43.0564 59.7466 43.6537 55.5933 45.2964C52.1104 46.6777 48.9628 48.6564 46.0386 50.9897C44.5486 52.147 43.1331 53.4164 41.7549 54.723C41.6618 54.835 41.5873 54.9844 41.401 54.779C40.954 54.3124 40.4698 53.883 39.9855 53.4537C37.0241 50.6724 33.6716 48.3017 30.0584 46.435C26.8921 44.811 23.4279 43.803 19.8891 43.4857C17.859 43.3177 15.8289 43.3924 13.8174 43.6537C13.8919 43.7657 13.985 43.747 14.0781 43.747C15.624 43.859 17.1326 44.083 18.6599 44.4004C22.776 45.2964 26.5569 46.995 30.0956 49.2724C33.3364 51.531 36.4095 54.0324 39.2778 56.7577C39.3895 56.8884 39.5385 56.963 39.3336 57.1684C38.0858 58.4564 36.8751 59.8004 35.7204 61.163C35.4596 61.4804 35.4596 61.4804 35.1244 61.2004C34.7705 60.883 34.4353 60.547 34.0069 60.3417C33.4109 60.0617 32.6845 60.267 32.3493 60.827C32.0326 61.387 32.1816 62.059 32.7218 62.451C33.057 62.6937 33.4481 62.7684 33.8393 62.619C34.0814 62.5444 34.2304 62.675 34.3608 62.787C34.4911 62.955 34.3049 63.0484 34.249 63.1604L33.2433 64.5977C32.6845 65.3257 32.014 65.867 31.1014 66.035C30.7103 66.1097 30.3005 66.203 29.928 66.315C29.4438 66.4457 29.034 66.6697 28.9036 67.155C28.6429 68.2004 28.8105 68.835 29.6486 69.4137C30.1329 69.731 30.6544 69.899 31.2131 69.899C32.7031 69.9737 33.8765 69.3204 34.7519 68.1444C35.4969 67.155 36.1301 66.0724 36.8193 65.027C36.9683 64.7844 37.08 64.803 37.2849 64.9524C37.7691 65.2884 38.2348 65.587 38.8308 65.755C39.4454 65.8857 40.0786 65.5497 40.2835 64.9524C40.4511 64.467 40.3953 64.0004 40.0228 63.627C39.6503 63.235 39.1846 63.1417 38.6818 63.291C38.4955 63.347 38.3093 63.4777 38.0858 63.347L38.2348 63.1417C39.2219 61.8164 40.3021 60.5284 41.401 59.2964C41.5686 59.1284 41.6618 59.1284 41.7921 59.2964C42.8538 60.491 43.8781 61.7044 44.8466 62.9924C44.9584 63.1044 45.1446 63.2164 45.0515 63.347Z" fill="white"/>
<path d="M44.4554 47.5737C43.5055 47.9657 42.5556 48.115 41.5499 47.7417C40.8794 47.5177 40.1902 47.5737 39.4639 47.611C40.2275 47.9657 40.9352 48.4137 41.5685 48.9363C42.1645 49.4217 42.7791 49.4217 43.4124 49.1043C44.3622 48.619 45.1445 47.8537 46.113 47.443C46.0757 47.3497 46.0012 47.3497 45.9454 47.3497C45.4425 47.3123 44.9396 47.3683 44.4554 47.5737Z" fill="white"/>
</g>
</svg>
